<svg width="134" height="128" viewBox="0 0 134 128" fill="none" xmlns="http://www.w3.org/2000/svg">
<path d="M51.1431 122.999C56.7451 122.999 61.2864 118.458 61.2864 112.856C61.2864 107.254 56.7451 102.713 51.1431 102.713C45.5411 102.713 40.9998 107.254 40.9998 112.856C40.9998 118.458 45.5411 122.999 51.1431 122.999Z" stroke="#C7C7C7" stroke-width="10" stroke-linecap="round" stroke-linejoin="round"/>
<path d="M107.713 122.999C113.315 122.999 117.857 118.458 117.857 112.856C117.857 107.254 113.315 102.713 107.713 102.713C102.111 102.713 97.5701 107.254 97.5701 112.856C97.5701 118.458 102.111 122.999 107.713 122.999Z" stroke="#C7C7C7" stroke-width="10" stroke-linecap="round" stroke-linejoin="round"/>
<mask id="path-3-outside-1_411_5" maskUnits="userSpaceOnUse" x="0" y="0" width="134.015" height="98.0108" fill="black">
<rect fill="white" width="134.015" height="98.0108"/>
<path d="M10.0011 10.0011C18.0346 10.0011 30.5721 10.0011 30.5721 10.0011L44.3547 78.8626C44.825 81.2303 46.113 83.3571 47.9934 84.8708C49.8738 86.3845 52.2267 87.1887 54.6402 87.1424H104.628C107.041 87.1887 109.394 86.3845 111.275 84.8708C113.155 83.3571 114.443 81.2303 114.913 78.8626L123.142 35.7149C123.142 35.7149 69.8571 35.7149 35.7149 35.7149"/>
</mask>
<path d="M10.0011 0C4.47765 0 0 4.47765 0 10.0011C0 15.5246 4.47765 20.0022 10.0011 20.0022V0ZM30.5721 10.0011L40.3787 8.03832C39.4432 3.36422 35.3389 0 30.5721 0V10.0011ZM44.3547 78.8626L54.1642 76.9142C54.1632 76.9094 54.1623 76.9046 54.1613 76.8998L44.3547 78.8626ZM54.6402 87.1424V77.1413C54.5763 77.1413 54.5124 77.1419 54.4486 77.1431L54.6402 87.1424ZM104.628 87.1424L104.819 77.1431C104.756 77.1419 104.692 77.1413 104.628 77.1413V87.1424ZM114.913 78.8626L124.723 80.811C124.728 80.786 124.733 80.761 124.737 80.7361L114.913 78.8626ZM123.142 35.7149L132.966 37.5884C133.524 34.6605 132.747 31.6362 130.847 29.3397C128.948 27.0432 126.122 25.7138 123.142 25.7138V35.7149ZM35.7149 25.7138C30.1914 25.7138 25.7138 30.1914 25.7138 35.7149C25.7138 41.2383 30.1914 45.716 35.7149 45.716V25.7138ZM10.0011 20.0022C10.0168 20.0022 10.0325 20.0022 10.0482 20.0022C10.064 20.0022 10.0797 20.0022 10.0955 20.0022C10.1112 20.0022 10.127 20.0022 10.1428 20.0022C10.1586 20.0022 10.1744 20.0022 10.1902 20.0022C10.206 20.0022 10.2219 20.0022 10.2377 20.0022C10.2536 20.0022 10.2695 20.0022 10.2854 20.0022C10.3013 20.0022 10.3172 20.0022 10.3331 20.0022C10.349 20.0022 10.365 20.0022 10.3809 20.0022C10.3969 20.0022 10.4128 20.0022 10.4288 20.0022C10.4448 20.0022 10.4608 20.0022 10.4768 20.0022C10.4929 20.0022 10.5089 20.0022 10.525 20.0022C10.541 20.0022 10.5571 20.0022 10.5732 20.0022C10.5892 20.0022 10.6053 20.0022 10.6215 20.0022C10.6376 20.0022 10.6537 20.0022 10.6699 20.0022C10.686 20.0022 10.7022 20.0022 10.7183 20.0022C10.7345 20.0022 10.7507 20.0022 10.7669 20.0022C10.7831 20.0022 10.7993 20.0022 10.8156 20.0022C10.8318 20.0022 10.8481 20.0022 10.8643 20.0022C10.8806 20.0022 10.8969 20.0022 10.9132 20.0022C10.9295 20.0022 10.9458 20.0022 10.9621 20.0022C10.9785 20.0022 10.9948 20.0022 11.0112 20.0022C11.0275 20.0022 11.0439 20.0022 11.0603 20.0022C11.0767 20.0022 11.0931 20.0022 11.1095 20.0022C11.1259 20.0022 11.1423 20.0022 11.1587 20.0022C11.1752 20.0022 11.1916 20.0022 11.2081 20.0022C11.2246 20.0022 11.2411 20.0022 11.2576 20.0022C11.2741 20.0022 11.2906 20.0022 11.3071 20.0022C11.3236 20.0022 11.3402 20.0022 11.3567 20.0022C11.3733 20.0022 11.3898 20.0022 11.4064 20.0022C11.423 20.0022 11.4396 20.0022 11.4562 20.0022C11.4728 20.0022 11.4894 20.0022 11.5061 20.0022C11.5227 20.0022 11.5393 20.0022 11.556 20.0022C11.5727 20.0022 11.5893 20.0022 11.606 20.0022C11.6227 20.0022 11.6394 20.0022 11.6561 20.0022C11.6728 20.0022 11.6896 20.0022 11.7063 20.0022C11.723 20.0022 11.7398 20.0022 11.7565 20.0022C11.7733 20.0022 11.7901 20.0022 11.8069 20.0022C11.8237 20.0022 11.8405 20.0022 11.8573 20.0022C11.8741 20.0022 11.8909 20.0022 11.9077 20.0022C11.9246 20.0022 11.9414 20.0022 11.9583 20.0022C11.9752 20.0022 11.992 20.0022 12.0089 20.0022C12.0258 20.0022 12.0427 20.0022 12.0596 20.0022C12.0765 20.0022 12.0934 20.0022 12.1104 20.0022C12.1273 20.0022 12.1443 20.0022 12.1612 20.0022C12.1782 20.0022 12.1951 20.0022 12.2121 20.0022C12.2291 20.0022 12.2461 20.0022 12.2631 20.0022C12.2801 20.0022 12.2971 20.0022 12.3141 20.0022C12.3312 20.0022 12.3482 20.0022 12.3652 20.0022C12.3823 20.0022 12.3993 20.0022 12.4164 20.0022C12.4335 20.0022 12.4506 20.0022 12.4677 20.0022C12.4847 20.0022 12.5018 20.0022 12.519 20.0022C12.5361 20.0022 12.5532 20.0022 12.5703 20.0022C12.5875 20.0022 12.6046 20.0022 12.6218 20.0022C12.6389 20.0022 12.6561 20.0022 12.6733 20.0022C12.6904 20.0022 12.7076 20.0022 12.7248 20.0022C12.742 20.0022 12.7592 20.0022 12.7764 20.0022C12.7937 20.0022 12.8109 20.0022 12.8281 20.0022C12.8454 20.0022 12.8626 20.0022 12.8799 20.0022C12.8971 20.0022 12.9144 20.0022 12.9317 20.0022C12.9489 20.0022 12.9662 20.0022 12.9835 20.0022C13.0008 20.0022 13.0181 20.0022 13.0354 20.0022C13.0527 20.0022 13.0701 20.0022 13.0874 20.0022C13.1047 20.0022 13.1221 20.0022 13.1394 20.0022C13.1568 20.0022 13.1741 20.0022 13.1915 20.0022C13.2089 20.0022 13.2263 20.0022 13.2436 20.0022C13.261 20.0022 13.2784 20.0022 13.2958 20.0022C13.3132 20.0022 13.3306 20.0022 13.3481 20.0022C13.3655 20.0022 13.3829 20.0022 13.4004 20.0022C13.4178 20.0022 13.4353 20.0022 13.4527 20.0022C13.4702 20.0022 13.4876 20.0022 13.5051 20.0022C13.5226 20.0022 13.5401 20.0022 13.5576 20.0022C13.575 20.0022 13.5925 20.0022 13.61 20.0022C13.6276 20.0022 13.6451 20.0022 13.6626 20.0022C13.6801 20.0022 13.6976 20.0022 13.7152 20.0022C13.7327 20.0022 13.7503 20.0022 13.7678 20.0022C13.7854 20.0022 13.8029 20.0022 13.8205 20.0022C13.8381 20.0022 13.8556 20.0022 13.8732 20.0022C13.8908 20.0022 13.9084 20.0022 13.926 20.0022C13.9436 20.0022 13.9612 20.0022 13.9788 20.0022C13.9964 20.0022 14.014 20.0022 14.0317 20.0022C14.0493 20.0022 14.0669 20.0022 14.0846 20.0022C14.1022 20.0022 14.1199 20.0022 14.1375 20.0022C14.1552 20.0022 14.1728 20.0022 14.1905 20.0022C14.2082 20.0022 14.2258 20.0022 14.2435 20.0022C14.2612 20.0022 14.2789 20.0022 14.2966 20.0022C14.3143 20.0022 14.332 20.0022 14.3497 20.0022C14.3674 20.0022 14.3851 20.0022 14.4028 20.0022C14.4205 20.0022 14.4383 20.0022 14.456 20.0022C14.4737 20.0022 14.4915 20.0022 14.5092 20.0022C14.527 20.0022 14.5447 20.0022 14.5625 20.0022C14.5802 20.0022 14.598 20.0022 14.6157 20.0022C14.6335 20.0022 14.6513 20.0022 14.6691 20.0022C14.6868 20.0022 14.7046 20.0022 14.7224 20.0022C14.7402 20.0022 14.758 20.0022 14.7758 20.0022C14.7936 20.0022 14.8114 20.0022 14.8292 20.0022C14.847 20.0022 14.8648 20.0022 14.8826 20.0022C14.9005 20.0022 14.9183 20.0022 14.9361 20.0022C14.9539 20.0022 14.9718 20.0022 14.9896 20.0022C15.0075 20.0022 15.0253 20.0022 15.0431 20.0022C15.061 20.0022 15.0788 20.0022 15.0967 20.0022C15.1146 20.0022 15.1324 20.0022 15.1503 20.0022C15.1682 20.0022 15.186 20.0022 15.2039 20.0022C15.2218 20.0022 15.2396 20.0022 15.2575 20.0022C15.2754 20.0022 15.2933 20.0022 15.3112 20.0022C15.3291 20.0022 15.347 20.0022 15.3649 20.0022C15.3828 20.0022 15.4007 20.0022 15.4186 20.0022C15.4365 20.0022 15.4544 20.0022 15.4723 20.0022C15.4902 20.0022 15.5081 20.0022 15.5261 20.0022C15.544 20.0022 15.5619 20.0022 15.5798 20.0022C15.5978 20.0022 15.6157 20.0022 15.6336 20.0022C15.6516 20.0022 15.6695 20.0022 15.6874 20.0022C15.7054 20.0022 15.7233 20.0022 15.7413 20.0022C15.7592 20.0022 15.7772 20.0022 15.7951 20.0022C15.8131 20.0022 15.831 20.0022 15.849 20.0022C15.8669 20.0022 15.8849 20.0022 15.9029 20.0022C15.9208 20.0022 15.9388 20.0022 15.9568 20.0022C15.9747 20.0022 15.9927 20.0022 16.0107 20.0022C16.0286 20.0022 16.0466 20.0022 16.0646 20.0022C16.0826 20.0022 16.1006 20.0022 16.1185 20.0022C16.1365 20.0022 16.1545 20.0022 16.1725 20.0022C16.1905 20.0022 16.2085 20.0022 16.2264 20.0022C16.2444 20.0022 16.2624 20.0022 16.2804 20.0022C16.2984 20.0022 16.3164 20.0022 16.3344 20.0022C16.3524 20.0022 16.3704 20.0022 16.3884 20.0022C16.4064 20.0022 16.4244 20.0022 16.4424 20.0022C16.4604 20.0022 16.4784 20.0022 16.4964 20.0022C16.5144 20.0022 16.5324 20.0022 16.5504 20.0022C16.5684 20.0022 16.5864 20.0022 16.6044 20.0022C16.6225 20.0022 16.6405 20.0022 16.6585 20.0022C16.6765 20.0022 16.6945 20.0022 16.7125 20.0022C16.7305 20.0022 16.7485 20.0022 16.7665 20.0022C16.7846 20.0022 16.8026 20.0022 16.8206 20.0022C16.8386 20.0022 16.8566 20.0022 16.8746 20.0022C16.8926 20.0022 16.9107 20.0022 16.9287 20.0022C16.9467 20.0022 16.9647 20.0022 16.9827 20.0022C17.0007 20.0022 17.0188 20.0022 17.0368 20.0022C17.0548 20.0022 17.0728 20.0022 17.0908 20.0022C17.1088 20.0022 17.1268 20.0022 17.1449 20.0022C17.1629 20.0022 17.1809 20.0022 17.1989 20.0022C17.2169 20.0022 17.2349 20.0022 17.2529 20.0022C17.271 20.0022 17.289 20.0022 17.307 20.0022C17.325 20.0022 17.343 20.0022 17.361 20.0022C17.379 20.0022 17.397 20.0022 17.415 20.0022C17.433 20.0022 17.451 20.0022 17.4691 20.0022C17.4871 20.0022 17.5051 20.0022 17.5231 20.0022C17.5411 20.0022 17.5591 20.0022 17.5771 20.0022C17.5951 20.0022 17.6131 20.0022 17.6311 20.0022C17.6491 20.0022 17.6671 20.0022 17.6851 20.0022C17.7031 20.0022 17.7211 20.0022 17.739 20.0022C17.757 20.0022 17.775 20.0022 17.793 20.0022C17.811 20.0022 17.829 20.0022 17.847 20.0022C17.865 20.0022 17.8829 20.0022 17.9009 20.0022C17.9189 20.0022 17.9369 20.0022 17.9549 20.0022C17.9728 20.0022 17.9908 20.0022 18.0088 20.0022C18.0267 20.0022 18.0447 20.0022 18.0627 20.0022C18.0806 20.0022 18.0986 20.0022 18.1166 20.0022C18.1345 20.0022 18.1525 20.0022 18.1704 20.0022C18.1884 20.0022 18.2064 20.0022 18.2243 20.0022C18.2423 20.0022 18.2602 20.0022 18.2781 20.0022C18.2961 20.0022 18.314 20.0022 18.332 20.0022C18.3499 20.0022 18.3678 20.0022 18.3858 20.0022C18.4037 20.0022 18.4216 20.0022 18.4396 20.0022C18.4575 20.0022 18.4754 20.0022 18.4933 20.0022C18.5112 20.0022 18.5292 20.0022 18.5471 20.0022C18.565 20.0022 18.5829 20.0022 18.6008 20.0022C18.6187 20.0022 18.6366 20.0022 18.6545 20.0022C18.6724 20.0022 18.6903 20.0022 18.7082 20.0022C18.7261 20.0022 18.7439 20.0022 18.7618 20.0022C18.7797 20.0022 18.7976 20.0022 18.8154 20.0022C18.8333 20.0022 18.8512 20.0022 18.869 20.0022C18.8869 20.0022 18.9048 20.0022 18.9226 20.0022C18.9405 20.0022 18.9583 20.0022 18.9762 20.0022C18.994 20.0022 19.0119 20.0022 19.0297 20.0022C19.0475 20.0022 19.0654 20.0022 19.0832 20.0022C19.101 20.0022 19.1188 20.0022 19.1366 20.0022C19.1545 20.0022 19.1723 20.0022 19.1901 20.0022C19.2079 20.0022 19.2257 20.0022 19.2435 20.0022C19.2613 20.0022 19.2791 20.0022 19.2968 20.0022C19.3146 20.0022 19.3324 20.0022 19.3502 20.0022C19.3679 20.0022 19.3857 20.0022 19.4035 20.0022C19.4212 20.0022 19.439 20.0022 19.4567 20.0022C19.4745 20.0022 19.4922 20.0022 19.51 20.0022C19.5277 20.0022 19.5455 20.0022 19.5632 20.0022C19.5809 20.0022 19.5986 20.0022 19.6163 20.0022C19.6341 20.0022 19.6518 20.0022 19.6695 20.0022C19.6872 20.0022 19.7049 20.0022 19.7226 20.0022C19.7402 20.0022 19.7579 20.0022 19.7756 20.0022C19.7933 20.0022 19.8109 20.0022 19.8286 20.0022C19.8463 20.0022 19.8639 20.0022 19.8816 20.0022C19.8992 20.0022 19.9169 20.0022 19.9345 20.0022C19.9521 20.0022 19.9698 20.0022 19.9874 20.0022C20.005 20.0022 20.0226 20.0022 20.0402 20.0022C20.0578 20.0022 20.0754 20.0022 20.093 20.0022C20.1106 20.0022 20.1282 20.0022 20.1458 20.0022C20.1634 20.0022 20.1809 20.0022 20.1985 20.0022C20.2161 20.0022 20.2336 20.0022 20.2512 20.0022C20.2687 20.0022 20.2863 20.0022 20.3038 20.0022C20.3213 20.0022 20.3389 20.0022 20.3564 20.0022C20.3739 20.0022 20.3914 20.0022 20.4089 20.0022C20.4264 20.0022 20.4439 20.0022 20.4614 20.0022C20.4789 20.0022 20.4963 20.0022 20.5138 20.0022C20.5313 20.0022 20.5487 20.0022 20.5662 20.0022C20.5836 20.0022 20.6011 20.0022 20.6185 20.0022C20.6359 20.0022 20.6534 20.0022 20.6708 20.0022C20.6882 20.0022 20.7056 20.0022 20.723 20.0022C20.7404 20.0022 20.7578 20.0022 20.7752 20.0022C20.7926 20.0022 20.8099 20.0022 20.8273 20.0022C20.8447 20.0022 20.862 20.0022 20.8794 20.0022C20.8967 20.0022 20.914 20.0022 20.9314 20.0022C20.9487 20.0022 20.966 20.0022 20.9833 20.0022C21.0006 20.0022 21.0179 20.0022 21.0352 20.0022C21.0525 20.0022 21.0698 20.0022 21.087 20.0022C21.1043 20.0022 21.1216 20.0022 21.1388 20.0022C21.1561 20.0022 21.1733 20.0022 21.1905 20.0022C21.2078 20.0022 21.225 20.0022 21.2422 20.0022C21.2594 20.0022 21.2766 20.0022 21.2938 20.0022C21.311 20.0022 21.3282 20.0022 21.3453 20.0022C21.3625 20.0022 21.3797 20.0022 21.3968 20.0022C21.4139 20.0022 21.4311 20.0022 21.4482 20.0022C21.4653 20.0022 21.4825 20.0022 21.4996 20.0022C21.5167 20.0022 21.5338 20.0022 21.5508 20.0022C21.5679 20.0022 21.585 20.0022 21.6021 20.0022C21.6191 20.0022 21.6362 20.0022 21.6532 20.0022C21.6702 20.0022 21.6873 20.0022 21.7043 20.0022C21.7213 20.0022 21.7383 20.0022 21.7553 20.0022C21.7723 20.0022 21.7893 20.0022 21.8063 20.0022C21.8232 20.0022 21.8402 20.0022 21.8571 20.0022C21.8741 20.0022 21.891 20.0022 21.9079 20.0022C21.9249 20.0022 21.9418 20.0022 21.9587 20.0022C21.9756 20.0022 21.9925 20.0022 22.0094 20.0022C22.0262 20.0022 22.0431 20.0022 22.0599 20.0022C22.0768 20.0022 22.0936 20.0022 22.1105 20.0022C22.1273 20.0022 22.1441 20.0022 22.1609 20.0022C22.1777 20.0022 22.1945 20.0022 22.2113 20.0022C22.2281 20.0022 22.2448 20.0022 22.2616 20.0022C22.2783 20.0022 22.2951 20.0022 22.3118 20.0022C22.3285 20.0022 22.3453 20.0022 22.362 20.0022C22.3787 20.0022 22.3954 20.0022 22.412 20.0022C22.4287 20.0022 22.4454 20.0022 22.462 20.0022C22.4787 20.0022 22.4953 20.0022 22.5119 20.0022C22.5286 20.0022 22.5452 20.0022 22.5618 20.0022C22.5784 20.0022 22.5949 20.0022 22.6115 20.0022C22.6281 20.0022 22.6446 20.0022 22.6612 20.0022C22.6777 20.0022 22.6943 20.0022 22.7108 20.0022C22.7273 20.0022 22.7438 20.0022 22.7603 20.0022C22.7768 20.0022 22.7932 20.0022 22.8097 20.0022C22.8262 20.0022 22.8426 20.0022 22.859 20.0022C22.8755 20.0022 22.8919 20.0022 22.9083 20.0022C22.9247 20.0022 22.9411 20.0022 22.9575 20.0022C22.9738 20.0022 22.9902 20.0022 23.0065 20.0022C23.0229 20.0022 23.0392 20.0022 23.0555 20.0022C23.0719 20.0022 23.0882 20.0022 23.1044 20.0022C23.1207 20.0022 23.137 20.0022 23.1533 20.0022C23.1695 20.0022 23.1858 20.0022 23.202 20.0022C23.2182 20.0022 23.2344 20.0022 23.2506 20.0022C23.2668 20.0022 23.283 20.0022 23.2992 20.0022C23.3153 20.0022 23.3315 20.0022 23.3476 20.0022C23.3638 20.0022 23.3799 20.0022 23.396 20.0022C23.4121 20.0022 23.4282 20.0022 23.4442 20.0022C23.4603 20.0022 23.4764 20.0022 23.4924 20.0022C23.5085 20.0022 23.5245 20.0022 23.5405 20.0022C23.5565 20.0022 23.5725 20.0022 23.5885 20.0022C23.6045 20.0022 23.6204 20.0022 23.6364 20.0022C23.6523 20.0022 23.6682 20.0022 23.6841 20.0022C23.7001 20.0022 23.716 20.0022 23.7318 20.0022C23.7477 20.0022 23.7636 20.0022 23.7794 20.0022C23.7953 20.0022 23.8111 20.0022 23.8269 20.0022C23.8427 20.0022 23.8585 20.0022 23.8743 20.0022C23.8901 20.0022 23.9059 20.0022 23.9216 20.0022C23.9373 20.0022 23.9531 20.0022 23.9688 20.0022C23.9845 20.0022 24.0002 20.0022 24.0159 20.0022C24.0316 20.0022 24.0472 20.0022 24.0629 20.0022C24.0785 20.0022 24.0941 20.0022 24.1097 20.0022C24.1253 20.0022 24.1409 20.0022 24.1565 20.0022C24.1721 20.0022 24.1876 20.0022 24.2032 20.0022C24.2187 20.0022 24.2342 20.0022 24.2497 20.0022C24.2652 20.0022 24.2807 20.0022 24.2962 20.0022C24.3117 20.0022 24.3271 20.0022 24.3425 20.0022C24.358 20.0022 24.3734 20.0022 24.3888 20.0022C24.4042 20.0022 24.4195 20.0022 24.4349 20.0022C24.4503 20.0022 24.4656 20.0022 24.4809 20.0022C24.4962 20.0022 24.5115 20.0022 24.5268 20.0022C24.5421 20.0022 24.5574 20.0022 24.5726 20.0022C24.5879 20.0022 24.6031 20.0022 24.6183 20.0022C24.6335 20.0022 24.6487 20.0022 24.6639 20.0022C24.679 20.0022 24.6942 20.0022 24.7093 20.0022C24.7245 20.0022 24.7396 20.0022 24.7547 20.0022C24.7698 20.0022 24.7848 20.0022 24.7999 20.0022C24.815 20.0022 24.83 20.0022 24.845 20.0022C24.86 20.0022 24.875 20.0022 24.89 20.0022C24.905 20.0022 24.9199 20.0022 24.9349 20.0022C24.9498 20.0022 24.9647 20.0022 24.9796 20.0022C24.9945 20.0022 25.0094 20.0022 25.0243 20.0022C25.0391 20.0022 25.054 20.0022 25.0688 20.0022C25.0836 20.0022 25.0984 20.0022 25.1132 20.0022C25.1279 20.0022 25.1427 20.0022 25.1574 20.0022C25.1722 20.0022 25.1869 20.0022 25.2016 20.0022C25.2163 20.0022 25.231 20.0022 25.2456 20.0022C25.2603 20.0022 25.2749 20.0022 25.2895 20.0022C25.3041 20.0022 25.3187 20.0022 25.3333 20.0022C25.3479 20.0022 25.3624 20.0022 25.377 20.0022C25.3915 20.0022 25.406 20.0022 25.4205 20.0022C25.435 20.0022 25.4494 20.0022 25.4639 20.0022C25.4783 20.0022 25.4928 20.0022 25.5072 20.0022C25.5216 20.0022 25.5359 20.0022 25.5503 20.0022C25.5647 20.0022 25.579 20.0022 25.5933 20.0022C25.6076 20.0022 25.6219 20.0022 25.6362 20.0022C25.6505 20.0022 25.6647 20.0022 25.679 20.0022C25.6932 20.0022 25.7074 20.0022 25.7216 20.0022C25.7358 20.0022 25.7499 20.0022 25.7641 20.0022C25.7782 20.0022 25.7923 20.0022 25.8064 20.0022C25.8205 20.0022 25.8346 20.0022 25.8486 20.0022C25.8627 20.0022 25.8767 20.0022 25.8907 20.0022C25.9047 20.0022 25.9187 20.0022 25.9327 20.0022C25.9466 20.0022 25.9606 20.0022 25.9745 20.0022C25.9884 20.0022 26.0023 20.0022 26.0162 20.0022C26.0301 20.0022 26.0439 20.0022 26.0577 20.0022C26.0716 20.0022 26.0854 20.0022 26.0991 20.0022C26.1129 20.0022 26.1267 20.0022 26.1404 20.0022C26.1541 20.0022 26.1678 20.0022 26.1815 20.0022C26.1952 20.0022 26.2089 20.0022 26.2225 20.0022C26.2361 20.0022 26.2498 20.0022 26.2633 20.0022C26.2769 20.0022 26.2905 20.0022 26.304 20.0022C26.3176 20.0022 26.3311 20.0022 26.3446 20.0022C26.3581 20.0022 26.3716 20.0022 26.385 20.0022C26.3985 20.0022 26.4119 20.0022 26.4253 20.0022C26.4387 20.0022 26.4521 20.0022 26.4654 20.0022C26.4788 20.0022 26.4921 20.0022 26.5054 20.0022C26.5187 20.0022 26.532 20.0022 26.5452 20.0022C26.5585 20.0022 26.5717 20.0022 26.5849 20.0022C26.5981 20.0022 26.6113 20.0022 26.6244 20.0022C26.6376 20.0022 26.6507 20.0022 26.6638 20.0022C26.6769 20.0022 26.69 20.0022 26.7031 20.0022C26.7161 20.0022 26.7291 20.0022 26.7422 20.0022C26.7552 20.0022 26.7681 20.0022 26.7811 20.0022C26.794 20.0022 26.807 20.0022 26.8199 20.0022C26.8328 20.0022 26.8456 20.0022 26.8585 20.0022C26.8713 20.0022 26.8842 20.0022 26.897 20.0022C26.9098 20.0022 26.9225 20.0022 26.9353 20.0022C26.948 20.0022 26.9608 20.0022 26.9735 20.0022C26.9862 20.0022 26.9988 20.0022 27.0115 20.0022C27.0241 20.0022 27.0367 20.0022 27.0493 20.0022C27.0619 20.0022 27.0745 20.0022 27.087 20.0022C27.0996 20.0022 27.1121 20.0022 27.1246 20.0022C27.137 20.0022 27.1495 20.0022 27.1619 20.0022C27.1744 20.0022 27.1868 20.0022 27.1992 20.0022C27.2115 20.0022 27.2239 20.0022 27.2362 20.0022C27.2485 20.0022 27.2608 20.0022 27.2731 20.0022C27.2854 20.0022 27.2976 20.0022 27.3098 20.0022C27.3221 20.0022 27.3343 20.0022 27.3464 20.0022C27.3586 20.0022 27.3707 20.0022 27.3828 20.0022C27.3949 20.0022 27.407 20.0022 27.4191 20.0022C27.4311 20.0022 27.4432 20.0022 27.4552 20.0022C27.4672 20.0022 27.4791 20.0022 27.4911 20.0022C27.503 20.0022 27.5149 20.0022 27.5268 20.0022C27.5387 20.0022 27.5506 20.0022 27.5624 20.0022C27.5742 20.0022 27.586 20.0022 27.5978 20.0022C27.6096 20.0022 27.6213 20.0022 27.6331 20.0022C27.6448 20.0022 27.6565 20.0022 27.6681 20.0022C27.6798 20.0022 27.6914 20.0022 27.703 20.0022C27.7146 20.0022 27.7262 20.0022 27.7378 20.0022C27.7493 20.0022 27.7608 20.0022 27.7723 20.0022C27.7838 20.0022 27.7953 20.0022 27.8067 20.0022C27.8181 20.0022 27.8295 20.0022 27.8409 20.0022C27.8523 20.0022 27.8636 20.0022 27.875 20.0022C27.8863 20.0022 27.8976 20.0022 27.9088 20.0022C27.9201 20.0022 27.9313 20.0022 27.9425 20.0022C27.9537 20.0022 27.9649 20.0022 27.976 20.0022C27.9872 20.0022 27.9983 20.0022 28.0094 20.0022C28.0204 20.0022 28.0315 20.0022 28.0425 20.0022C28.0535 20.0022 28.0645 20.0022 28.0755 20.0022C28.0865 20.0022 28.0974 20.0022 28.1083 20.0022C28.1192 20.0022 28.1301 20.0022 28.1409 20.0022C28.1518 20.0022 28.1626 20.0022 28.1734 20.0022C28.1841 20.0022 28.1949 20.0022 28.2056 20.0022C28.2163 20.0022 28.227 20.0022 28.2377 20.0022C28.2483 20.0022 28.259 20.0022 28.2696 20.0022C28.2802 20.0022 28.2907 20.0022 28.3013 20.0022C28.3118 20.0022 28.3223 20.0022 28.3328 20.0022C28.3433 20.0022 28.3537 20.0022 28.3641 20.0022C28.3745 20.0022 28.3849 20.0022 28.3953 20.0022C28.4056 20.0022 28.416 20.0022 28.4262 20.0022C28.4365 20.0022 28.4468 20.0022 28.457 20.0022C28.4672 20.0022 28.4774 20.0022 28.4876 20.0022C28.4978 20.0022 28.5079 20.0022 28.518 20.0022C28.5281 20.0022 28.5382 20.0022 28.5482 20.0022C28.5582 20.0022 28.5682 20.0022 28.5782 20.0022C28.5882 20.0022 28.5981 20.0022 28.608 20.0022C28.6179 20.0022 28.6278 20.0022 28.6377 20.0022C28.6475 20.0022 28.6573 20.0022 28.6671 20.0022C28.6769 20.0022 28.6866 20.0022 28.6963 20.0022C28.7061 20.0022 28.7157 20.0022 28.7254 20.0022C28.735 20.0022 28.7447 20.0022 28.7542 20.0022C28.7638 20.0022 28.7734 20.0022 28.7829 20.0022C28.7924 20.0022 28.8019 20.0022 28.8114 20.0022C28.8208 20.0022 28.8302 20.0022 28.8396 20.0022C28.849 20.0022 28.8584 20.0022 28.8677 20.0022C28.877 20.0022 28.8863 20.0022 28.8956 20.0022C28.9048 20.0022 28.914 20.0022 28.9232 20.0022C28.9324 20.0022 28.9416 20.0022 28.9507 20.0022C28.9598 20.0022 28.9689 20.0022 28.9779 20.0022C28.987 20.0022 28.996 20.0022 29.005 20.0022C29.014 20.0022 29.0229 20.0022 29.0318 20.0022C29.0408 20.0022 29.0497 20.0022 29.0585 20.0022C29.0674 20.0022 29.0762 20.0022 29.0849 20.0022C29.0937 20.0022 29.1025 20.0022 29.1112 20.0022C29.1199 20.0022 29.1286 20.0022 29.1372 20.0022C29.1459 20.0022 29.1545 20.0022 29.1631 20.0022C29.1716 20.0022 29.1802 20.0022 29.1887 20.0022C29.1972 20.0022 29.2056 20.0022 29.2141 20.0022C29.2225 20.0022 29.2309 20.0022 29.2393 20.0022C29.2477 20.0022 29.256 20.0022 29.2643 20.0022C29.2726 20.0022 29.2808 20.0022 29.2891 20.0022C29.2973 20.0022 29.3055 20.0022 29.3136 20.0022C29.3218 20.0022 29.3299 20.0022 29.338 20.0022C29.3461 20.0022 29.3541 20.0022 29.3621 20.0022C29.3701 20.0022 29.3781 20.0022 29.3861 20.0022C29.394 20.0022 29.4019 20.0022 29.4098 20.0022C29.4176 20.0022 29.4255 20.0022 29.4333 20.0022C29.4411 20.0022 29.4488 20.0022 29.4566 20.0022C29.4643 20.0022 29.472 20.0022 29.4796 20.0022C29.4873 20.0022 29.4949 20.0022 29.5025 20.0022C29.5101 20.0022 29.5176 20.0022 29.5251 20.0022C29.5326 20.0022 29.5401 20.0022 29.5475 20.0022C29.555 20.0022 29.5624 20.0022 29.5697 20.0022C29.5771 20.0022 29.5844 20.0022 29.5917 20.0022C29.599 20.0022 29.6062 20.0022 29.6134 20.0022C29.6207 20.0022 29.6278 20.0022 29.635 20.0022C29.6421 20.0022 29.6492 20.0022 29.6563 20.0022C29.6633 20.0022 29.6704 20.0022 29.6774 20.0022C29.6843 20.0022 29.6913 20.0022 29.6982 20.0022C29.7051 20.0022 29.712 20.0022 29.7188 20.0022C29.7257 20.0022 29.7325 20.0022 29.7393 20.0022C29.746 20.0022 29.7527 20.0022 29.7594 20.0022C29.7661 20.0022 29.7728 20.0022 29.7794 20.0022C29.786 20.0022 29.7926 20.0022 29.7991 20.0022C29.8056 20.0022 29.8121 20.0022 29.8186 20.0022C29.8251 20.0022 29.8315 20.0022 29.8379 20.0022C29.8442 20.0022 29.8506 20.0022 29.8569 20.0022C29.8632 20.0022 29.8695 20.0022 29.8757 20.0022C29.8819 20.0022 29.8881 20.0022 29.8943 20.0022C29.9004 20.0022 29.9065 20.0022 29.9126 20.0022C29.9187 20.0022 29.9247 20.0022 29.9307 20.0022C29.9367 20.0022 29.9427 20.0022 29.9486 20.0022C29.9545 20.0022 29.9604 20.0022 29.9662 20.0022C29.9721 20.0022 29.9779 20.0022 29.9836 20.0022C29.9894 20.0022 29.9951 20.0022 30.0008 20.0022C30.0065 20.0022 30.0121 20.0022 30.0177 20.0022C30.0233 20.0022 30.0289 20.0022 30.0344 20.0022C30.0399 20.0022 30.0454 20.0022 30.0508 20.0022C30.0563 20.0022 30.0617 20.0022 30.067 20.0022C30.0724 20.0022 30.0777 20.0022 30.083 20.0022C30.0883 20.0022 30.0935 20.0022 30.0987 20.0022C30.1039 20.0022 30.1091 20.0022 30.1142 20.0022C30.1193 20.0022 30.1244 20.0022 30.1295 20.0022C30.1345 20.0022 30.1395 20.0022 30.1445 20.0022C30.1494 20.0022 30.1543 20.0022 30.1592 20.0022C30.1641 20.0022 30.1689 20.0022 30.1737 20.0022C30.1785 20.0022 30.1833 20.0022 30.188 20.0022C30.1927 20.0022 30.1974 20.0022 30.202 20.0022C30.2066 20.0022 30.2112 20.0022 30.2158 20.0022C30.2203 20.0022 30.2248 20.0022 30.2293 20.0022C30.2337 20.0022 30.2382 20.0022 30.2426 20.0022C30.2469 20.0022 30.2513 20.0022 30.2556 20.0022C30.2599 20.0022 30.2641 20.0022 30.2683 20.0022C30.2726 20.0022 30.2767 20.0022 30.2809 20.0022C30.285 20.0022 30.2891 20.0022 30.2931 20.0022C30.2972 20.0022 30.3012 20.0022 30.3052 20.0022C30.3091 20.0022 30.313 20.0022 30.3169 20.0022C30.3208 20.0022 30.3246 20.0022 30.3284 20.0022C30.3322 20.0022 30.336 20.0022 30.3397 20.0022C30.3434 20.0022 30.347 20.0022 30.3507 20.0022C30.3543 20.0022 30.3579 20.0022 30.3614 20.0022C30.3649 20.0022 30.3684 20.0022 30.3719 20.0022C30.3753 20.0022 30.3788 20.0022 30.3821 20.0022C30.3855 20.0022 30.3888 20.0022 30.3921 20.0022C30.3954 20.0022 30.3986 20.0022 30.4018 20.0022C30.405 20.0022 30.4081 20.0022 30.4112 20.0022C30.4143 20.0022 30.4174 20.0022 30.4204 20.0022C30.4234 20.0022 30.4264 20.0022 30.4293 20.0022C30.4323 20.0022 30.4352 20.0022 30.438 20.0022C30.4409 20.0022 30.4437 20.0022 30.4464 20.0022C30.4492 20.0022 30.4519 20.0022 30.4545 20.0022C30.4572 20.0022 30.4598 20.0022 30.4624 20.0022C30.465 20.0022 30.4675 20.0022 30.47 20.0022C30.4725 20.0022 30.475 20.0022 30.4774 20.0022C30.4798 20.0022 30.4821 20.0022 30.4844 20.0022C30.4867 20.0022 30.489 20.0022 30.4912 20.0022C30.4934 20.0022 30.4956 20.0022 30.4978 20.0022C30.4999 20.0022 30.502 20.0022 30.504 20.0022C30.5061 20.0022 30.5081 20.0022 30.51 20.0022C30.512 20.0022 30.5139 20.0022 30.5157 20.0022C30.5176 20.0022 30.5194 20.0022 30.5212 20.0022C30.523 20.0022 30.5247 20.0022 30.5264 20.0022C30.528 20.0022 30.5297 20.0022 30.5313 20.0022C30.5329 20.0022 30.5344 20.0022 30.5359 20.0022C30.5374 20.0022 30.5389 20.0022 30.5403 20.0022C30.5417 20.0022 30.543 20.0022 30.5443 20.0022C30.5457 20.0022 30.5469 20.0022 30.5481 20.0022C30.5494 20.0022 30.5505 20.0022 30.5517 20.0022C30.5528 20.0022 30.5539 20.0022 30.5549 20.0022C30.556 20.0022 30.5569 20.0022 30.5579 20.0022C30.5588 20.0022 30.5597 20.0022 30.5606 20.0022C30.5614 20.0022 30.5622 20.0022 30.563 20.0022C30.5638 20.0022 30.5645 20.0022 30.5651 20.0022C30.5658 20.0022 30.5664 20.0022 30.567 20.0022C30.5675 20.0022 30.5681 20.0022 30.5685 20.0022C30.569 20.0022 30.5694 20.0022 30.5698 20.0022C30.5702 20.0022 30.5705 20.0022 30.5708 20.0022C30.5711 20.0022 30.5714 20.0022 30.5715 20.0022C30.5717 20.0022 30.5719 20.0022 30.572 20.0022C30.5721 20.0022 30.5721 20.0022 30.5721 10.0011C30.5721 0 30.5721 0 30.572 0C30.5719 0 30.5717 0 30.5715 0C30.5714 0 30.5711 0 30.5708 0C30.5705 0 30.5702 0 30.5698 0C30.5694 0 30.569 0 30.5685 0C30.5681 0 30.5675 0 30.567 0C30.5664 0 30.5658 0 30.5651 0C30.5645 0 30.5638 0 30.563 0C30.5622 0 30.5614 0 30.5606 0C30.5597 0 30.5588 0 30.5579 0C30.5569 0 30.556 0 30.5549 0C30.5539 0 30.5528 0 30.5517 0C30.5505 0 30.5494 0 30.5481 0C30.5469 0 30.5457 0 30.5443 0C30.543 0 30.5417 0 30.5403 0C30.5389 0 30.5374 0 30.5359 0C30.5344 0 30.5329 0 30.5313 0C30.5297 0 30.528 0 30.5264 0C30.5247 0 30.523 0 30.5212 0C30.5194 0 30.5176 0 30.5157 0C30.5139 0 30.512 0 30.51 0C30.5081 0 30.5061 0 30.504 0C30.502 0 30.4999 0 30.4978 0C30.4956 0 30.4934 0 30.4912 0C30.489 0 30.4867 0 30.4844 0C30.4821 0 30.4798 0 30.4774 0C30.475 0 30.4725 0 30.47 0C30.4675 0 30.465 0 30.4624 0C30.4598 0 30.4572 0 30.4545 0C30.4519 0 30.4492 0 30.4464 0C30.4437 0 30.4409 0 30.438 0C30.4352 0 30.4323 0 30.4293 0C30.4264 0 30.4234 0 30.4204 0C30.4174 0 30.4143 0 30.4112 0C30.4081 0 30.405 0 30.4018 0C30.3986 0 30.3954 0 30.3921 0C30.3888 0 30.3855 0 30.3821 0C30.3788 0 30.3753 0 30.3719 0C30.3684 0 30.3649 0 30.3614 0C30.3579 0 30.3543 0 30.3507 0C30.347 0 30.3434 0 30.3397 0C30.336 0 30.3322 0 30.3284 0C30.3246 0 30.3208 0 30.3169 0C30.313 0 30.3091 0 30.3052 0C30.3012 0 30.2972 0 30.2931 0C30.2891 0 30.285 0 30.2809 0C30.2767 0 30.2726 0 30.2683 0C30.2641 0 30.2599 0 30.2556 0C30.2513 0 30.2469 0 30.2426 0C30.2382 0 30.2337 0 30.2293 0C30.2248 0 30.2203 0 30.2158 0C30.2112 0 30.2066 0 30.202 0C30.1974 0 30.1927 0 30.188 0C30.1833 0 30.1785 0 30.1737 0C30.1689 0 30.1641 0 30.1592 0C30.1543 0 30.1494 0 30.1445 0C30.1395 0 30.1345 0 30.1295 0C30.1244 0 30.1193 0 30.1142 0C30.1091 0 30.1039 0 30.0987 0C30.0935 0 30.0883 0 30.083 0C30.0777 0 30.0724 0 30.067 0C30.0617 0 30.0563 0 30.0508 0C30.0454 0 30.0399 0 30.0344 0C30.0289 0 30.0233 0 30.0177 0C30.0121 0 30.0065 0 30.0008 0C29.9951 0 29.9894 0 29.9836 0C29.9779 0 29.9721 0 29.9662 0C29.9604 0 29.9545 0 29.9486 0C29.9427 0 29.9367 0 29.9307 0C29.9247 0 29.9187 0 29.9126 0C29.9065 0 29.9004 0 29.8943 0C29.8881 0 29.8819 0 29.8757 0C29.8695 0 29.8632 0 29.8569 0C29.8506 0 29.8442 0 29.8379 0C29.8315 0 29.8251 0 29.8186 0C29.8121 0 29.8056 0 29.7991 0C29.7926 0 29.786 0 29.7794 0C29.7728 0 29.7661 0 29.7594 0C29.7527 0 29.746 0 29.7393 0C29.7325 0 29.7257 0 29.7188 0C29.712 0 29.7051 0 29.6982 0C29.6913 0 29.6843 0 29.6774 0C29.6704 0 29.6633 0 29.6563 0C29.6492 0 29.6421 0 29.635 0C29.6278 0 29.6207 0 29.6134 0C29.6062 0 29.599 0 29.5917 0C29.5844 0 29.5771 0 29.5697 0C29.5624 0 29.555 0 29.5475 0C29.5401 0 29.5326 0 29.5251 0C29.5176 0 29.5101 0 29.5025 0C29.4949 0 29.4873 0 29.4796 0C29.472 0 29.4643 0 29.4566 0C29.4488 0 29.4411 0 29.4333 0C29.4255 0 29.4176 0 29.4098 0C29.4019 0 29.394 0 29.3861 0C29.3781 0 29.3701 0 29.3621 0C29.3541 0 29.3461 0 29.338 0C29.3299 0 29.3218 0 29.3136 0C29.3055 0 29.2973 0 29.2891 0C29.2808 0 29.2726 0 29.2643 0C29.256 0 29.2477 0 29.2393 0C29.2309 0 29.2225 0 29.2141 0C29.2056 0 29.1972 0 29.1887 0C29.1802 0 29.1716 0 29.1631 0C29.1545 0 29.1459 0 29.1372 0C29.1286 0 29.1199 0 29.1112 0C29.1025 0 29.0937 0 29.0849 0C29.0762 0 29.0674 0 29.0585 0C29.0497 0 29.0408 0 29.0318 0C29.0229 0 29.014 0 29.005 0C28.996 0 28.987 0 28.9779 0C28.9689 0 28.9598 0 28.9507 0C28.9416 0 28.9324 0 28.9232 0C28.914 0 28.9048 0 28.8956 0C28.8863 0 28.877 0 28.8677 0C28.8584 0 28.849 0 28.8396 0C28.8302 0 28.8208 0 28.8114 0C28.8019 0 28.7924 0 28.7829 0C28.7734 0 28.7638 0 28.7542 0C28.7447 0 28.735 0 28.7254 0C28.7157 0 28.7061 0 28.6963 0C28.6866 0 28.6769 0 28.6671 0C28.6573 0 28.6475 0 28.6377 0C28.6278 0 28.6179 0 28.608 0C28.5981 0 28.5882 0 28.5782 0C28.5682 0 28.5582 0 28.5482 0C28.5382 0 28.5281 0 28.518 0C28.5079 0 28.4978 0 28.4876 0C28.4774 0 28.4672 0 28.457 0C28.4468 0 28.4365 0 28.4262 0C28.416 0 28.4056 0 28.3953 0C28.3849 0 28.3745 0 28.3641 0C28.3537 0 28.3433 0 28.3328 0C28.3223 0 28.3118 0 28.3013 0C28.2907 0 28.2802 0 28.2696 0C28.259 0 28.2483 0 28.2377 0C28.227 0 28.2163 0 28.2056 0C28.1949 0 28.1841 0 28.1734 0C28.1626 0 28.1518 0 28.1409 0C28.1301 0 28.1192 0 28.1083 0C28.0974 0 28.0865 0 28.0755 0C28.0645 0 28.0535 0 28.0425 0C28.0315 0 28.0204 0 28.0094 0C27.9983 0 27.9872 0 27.976 0C27.9649 0 27.9537 0 27.9425 0C27.9313 0 27.9201 0 27.9088 0C27.8976 0 27.8863 0 27.875 0C27.8636 0 27.8523 0 27.8409 0C27.8295 0 27.8181 0 27.8067 0C27.7953 0 27.7838 0 27.7723 0C27.7608 0 27.7493 0 27.7378 0C27.7262 0 27.7146 0 27.703 0C27.6914 0 27.6798 0 27.6681 0C27.6565 0 27.6448 0 27.6331 0C27.6213 0 27.6096 0 27.5978 0C27.586 0 27.5742 0 27.5624 0C27.5506 0 27.5387 0 27.5268 0C27.5149 0 27.503 0 27.4911 0C27.4791 0 27.4672 0 27.4552 0C27.4432 0 27.4311 0 27.4191 0C27.407 0 27.3949 0 27.3828 0C27.3707 0 27.3586 0 27.3464 0C27.3343 0 27.3221 0 27.3098 0C27.2976 0 27.2854 0 27.2731 0C27.2608 0 27.2485 0 27.2362 0C27.2239 0 27.2115 0 27.1992 0C27.1868 0 27.1744 0 27.1619 0C27.1495 0 27.137 0 27.1246 0C27.1121 0 27.0996 0 27.087 0C27.0745 0 27.0619 0 27.0493 0C27.0367 0 27.0241 0 27.0115 0C26.9988 0 26.9862 0 26.9735 0C26.9608 0 26.948 0 26.9353 0C26.9225 0 26.9098 0 26.897 0C26.8842 0 26.8713 0 26.8585 0C26.8456 0 26.8328 0 26.8199 0C26.807 0 26.794 0 26.7811 0C26.7681 0 26.7552 0 26.7422 0C26.7291 0 26.7161 0 26.7031 0C26.69 0 26.6769 0 26.6638 0C26.6507 0 26.6376 0 26.6244 0C26.6113 0 26.5981 0 26.5849 0C26.5717 0 26.5585 0 26.5452 0C26.532 0 26.5187 0 26.5054 0C26.4921 0 26.4788 0 26.4654 0C26.4521 0 26.4387 0 26.4253 0C26.4119 0 26.3985 0 26.385 0C26.3716 0 26.3581 0 26.3446 0C26.3311 0 26.3176 0 26.304 0C26.2905 0 26.2769 0 26.2633 0C26.2498 0 26.2361 0 26.2225 0C26.2089 0 26.1952 0 26.1815 0C26.1678 0 26.1541 0 26.1404 0C26.1267 0 26.1129 0 26.0991 0C26.0854 0 26.0716 0 26.0577 0C26.0439 0 26.0301 0 26.0162 0C26.0023 0 25.9884 0 25.9745 0C25.9606 0 25.9466 0 25.9327 0C25.9187 0 25.9047 0 25.8907 0C25.8767 0 25.8627 0 25.8486 0C25.8346 0 25.8205 0 25.8064 0C25.7923 0 25.7782 0 25.7641 0C25.7499 0 25.7358 0 25.7216 0C25.7074 0 25.6932 0 25.679 0C25.6647 0 25.6505 0 25.6362 0C25.6219 0 25.6076 0 25.5933 0C25.579 0 25.5647 0 25.5503 0C25.5359 0 25.5216 0 25.5072 0C25.4928 0 25.4783 0 25.4639 0C25.4494 0 25.435 0 25.4205 0C25.406 0 25.3915 0 25.377 0C25.3624 0 25.3479 0 25.3333 0C25.3187 0 25.3041 0 25.2895 0C25.2749 0 25.2603 0 25.2456 0C25.231 0 25.2163 0 25.2016 0C25.1869 0 25.1722 0 25.1574 0C25.1427 0 25.1279 0 25.1132 0C25.0984 0 25.0836 0 25.0688 0C25.054 0 25.0391 0 25.0243 0C25.0094 0 24.9945 0 24.9796 0C24.9647 0 24.9498 0 24.9349 0C24.9199 0 24.905 0 24.89 0C24.875 0 24.86 0 24.845 0C24.83 0 24.815 0 24.7999 0C24.7848 0 24.7698 0 24.7547 0C24.7396 0 24.7245 0 24.7093 0C24.6942 0 24.679 0 24.6639 0C24.6487 0 24.6335 0 24.6183 0C24.6031 0 24.5879 0 24.5726 0C24.5574 0 24.5421 0 24.5268 0C24.5115 0 24.4962 0 24.4809 0C24.4656 0 24.4503 0 24.4349 0C24.4195 0 24.4042 0 24.3888 0C24.3734 0 24.358 0 24.3425 0C24.3271 0 24.3117 0 24.2962 0C24.2807 0 24.2652 0 24.2497 0C24.2342 0 24.2187 0 24.2032 0C24.1876 0 24.1721 0 24.1565 0C24.1409 0 24.1253 0 24.1097 0C24.0941 0 24.0785 0 24.0629 0C24.0472 0 24.0316 0 24.0159 0C24.0002 0 23.9845 0 23.9688 0C23.9531 0 23.9373 0 23.9216 0C23.9059 0 23.8901 0 23.8743 0C23.8585 0 23.8427 0 23.8269 0C23.8111 0 23.7953 0 23.7794 0C23.7636 0 23.7477 0 23.7318 0C23.716 0 23.7001 0 23.6841 0C23.6682 0 23.6523 0 23.6364 0C23.6204 0 23.6045 0 23.5885 0C23.5725 0 23.5565 0 23.5405 0C23.5245 0 23.5085 0 23.4924 0C23.4764 0 23.4603 0 23.4442 0C23.4282 0 23.4121 0 23.396 0C23.3799 0 23.3638 0 23.3476 0C23.3315 0 23.3153 0 23.2992 0C23.283 0 23.2668 0 23.2506 0C23.2344 0 23.2182 0 23.202 0C23.1858 0 23.1695 0 23.1533 0C23.137 0 23.1207 0 23.1044 0C23.0882 0 23.0719 0 23.0555 0C23.0392 0 23.0229 0 23.0065 0C22.9902 0 22.9738 0 22.9575 0C22.9411 0 22.9247 0 22.9083 0C22.8919 0 22.8755 0 22.859 0C22.8426 0 22.8262 0 22.8097 0C22.7932 0 22.7768 0 22.7603 0C22.7438 0 22.7273 0 22.7108 0C22.6943 0 22.6777 0 22.6612 0C22.6446 0 22.6281 0 22.6115 0C22.5949 0 22.5784 0 22.5618 0C22.5452 0 22.5286 0 22.5119 0C22.4953 0 22.4787 0 22.462 0C22.4454 0 22.4287 0 22.412 0C22.3954 0 22.3787 0 22.362 0C22.3453 0 22.3285 0 22.3118 0C22.2951 0 22.2783 0 22.2616 0C22.2448 0 22.2281 0 22.2113 0C22.1945 0 22.1777 0 22.1609 0C22.1441 0 22.1273 0 22.1105 0C22.0936 0 22.0768 0 22.0599 0C22.0431 0 22.0262 0 22.0094 0C21.9925 0 21.9756 0 21.9587 0C21.9418 0 21.9249 0 21.9079 0C21.891 0 21.8741 0 21.8571 0C21.8402 0 21.8232 0 21.8063 0C21.7893 0 21.7723 0 21.7553 0C21.7383 0 21.7213 0 21.7043 0C21.6873 0 21.6702 0 21.6532 0C21.6362 0 21.6191 0 21.6021 0C21.585 0 21.5679 0 21.5508 0C21.5338 0 21.5167 0 21.4996 0C21.4825 0 21.4653 0 21.4482 0C21.4311 0 21.4139 0 21.3968 0C21.3797 0 21.3625 0 21.3453 0C21.3282 0 21.311 0 21.2938 0C21.2766 0 21.2594 0 21.2422 0C21.225 0 21.2078 0 21.1905 0C21.1733 0 21.1561 0 21.1388 0C21.1216 0 21.1043 0 21.087 0C21.0698 0 21.0525 0 21.0352 0C21.0179 0 21.0006 0 20.9833 0C20.966 0 20.9487 0 20.9314 0C20.914 0 20.8967 0 20.8794 0C20.862 0 20.8447 0 20.8273 0C20.8099 0 20.7926 0 20.7752 0C20.7578 0 20.7404 0 20.723 0C20.7056 0 20.6882 0 20.6708 0C20.6534 0 20.6359 0 20.6185 0C20.6011 0 20.5836 0 20.5662 0C20.5487 0 20.5313 0 20.5138 0C20.4963 0 20.4789 0 20.4614 0C20.4439 0 20.4264 0 20.4089 0C20.3914 0 20.3739 0 20.3564 0C20.3389 0 20.3213 0 20.3038 0C20.2863 0 20.2687 0 20.2512 0C20.2336 0 20.2161 0 20.1985 0C20.1809 0 20.1634 0 20.1458 0C20.1282 0 20.1106 0 20.093 0C20.0754 0 20.0578 0 20.0402 0C20.0226 0 20.005 0 19.9874 0C19.9698 0 19.9521 0 19.9345 0C19.9169 0 19.8992 0 19.8816 0C19.8639 0 19.8463 0 19.8286 0C19.8109 0 19.7933 0 19.7756 0C19.7579 0 19.7402 0 19.7226 0C19.7049 0 19.6872 0 19.6695 0C19.6518 0 19.6341 0 19.6163 0C19.5986 0 19.5809 0 19.5632 0C19.5455 0 19.5277 0 19.51 0C19.4922 0 19.4745 0 19.4567 0C19.439 0 19.4212 0 19.4035 0C19.3857 0 19.3679 0 19.3502 0C19.3324 0 19.3146 0 19.2968 0C19.2791 0 19.2613 0 19.2435 0C19.2257 0 19.2079 0 19.1901 0C19.1723 0 19.1545 0 19.1366 0C19.1188 0 19.101 0 19.0832 0C19.0654 0 19.0475 0 19.0297 0C19.0119 0 18.994 0 18.9762 0C18.9583 0 18.9405 0 18.9226 0C18.9048 0 18.8869 0 18.869 0C18.8512 0 18.8333 0 18.8154 0C18.7976 0 18.7797 0 18.7618 0C18.7439 0 18.7261 0 18.7082 0C18.6903 0 18.6724 0 18.6545 0C18.6366 0 18.6187 0 18.6008 0C18.5829 0 18.565 0 18.5471 0C18.5292 0 18.5112 0 18.4933 0C18.4754 0 18.4575 0 18.4396 0C18.4216 0 18.4037 0 18.3858 0C18.3678 0 18.3499 0 18.332 0C18.314 0 18.2961 0 18.2781 0C18.2602 0 18.2423 0 18.2243 0C18.2064 0 18.1884 0 18.1704 0C18.1525 0 18.1345 0 18.1166 0C18.0986 0 18.0806 0 18.0627 0C18.0447 0 18.0267 0 18.0088 0C17.9908 0 17.9728 0 17.9549 0C17.9369 0 17.9189 0 17.9009 0C17.8829 0 17.865 0 17.847 0C17.829 0 17.811 0 17.793 0C17.775 0 17.757 0 17.739 0C17.7211 0 17.7031 0 17.6851 0C17.6671 0 17.6491 0 17.6311 0C17.6131 0 17.5951 0 17.5771 0C17.5591 0 17.5411 0 17.5231 0C17.5051 0 17.4871 0 17.4691 0C17.451 0 17.433 0 17.415 0C17.397 0 17.379 0 17.361 0C17.343 0 17.325 0 17.307 0C17.289 0 17.271 0 17.2529 0C17.2349 0 17.2169 0 17.1989 0C17.1809 0 17.1629 0 17.1449 0C17.1268 0 17.1088 0 17.0908 0C17.0728 0 17.0548 0 17.0368 0C17.0188 0 17.0007 0 16.9827 0C16.9647 0 16.9467 0 16.9287 0C16.9107 0 16.8926 0 16.8746 0C16.8566 0 16.8386 0 16.8206 0C16.8026 0 16.7846 0 16.7665 0C16.7485 0 16.7305 0 16.7125 0C16.6945 0 16.6765 0 16.6585 0C16.6405 0 16.6225 0 16.6044 0C16.5864 0 16.5684 0 16.5504 0C16.5324 0 16.5144 0 16.4964 0C16.4784 0 16.4604 0 16.4424 0C16.4244 0 16.4064 0 16.3884 0C16.3704 0 16.3524 0 16.3344 0C16.3164 0 16.2984 0 16.2804 0C16.2624 0 16.2444 0 16.2264 0C16.2085 0 16.1905 0 16.1725 0C16.1545 0 16.1365 0 16.1185 0C16.1006 0 16.0826 0 16.0646 0C16.0466 0 16.0286 0 16.0107 0C15.9927 0 15.9747 0 15.9568 0C15.9388 0 15.9208 0 15.9029 0C15.8849 0 15.8669 0 15.849 0C15.831 0 15.8131 0 15.7951 0C15.7772 0 15.7592 0 15.7413 0C15.7233 0 15.7054 0 15.6874 0C15.6695 0 15.6516 0 15.6336 0C15.6157 0 15.5978 0 15.5798 0C15.5619 0 15.544 0 15.5261 0C15.5081 0 15.4902 0 15.4723 0C15.4544 0 15.4365 0 15.4186 0C15.4007 0 15.3828 0 15.3649 0C15.347 0 15.3291 0 15.3112 0C15.2933 0 15.2754 0 15.2575 0C15.2396 0 15.2218 0 15.2039 0C15.186 0 15.1682 0 15.1503 0C15.1324 0 15.1146 0 15.0967 0C15.0788 0 15.061 0 15.0431 0C15.0253 0 15.0075 0 14.9896 0C14.9718 0 14.9539 0 14.9361 0C14.9183 0 14.9005 0 14.8826 0C14.8648 0 14.847 0 14.8292 0C14.8114 0 14.7936 0 14.7758 0C14.758 0 14.7402 0 14.7224 0C14.7046 0 14.6868 0 14.6691 0C14.6513 0 14.6335 0 14.6157 0C14.598 0 14.5802 0 14.5625 0C14.5447 0 14.527 0 14.5092 0C14.4915 0 14.4737 0 14.456 0C14.4383 0 14.4205 0 14.4028 0C14.3851 0 14.3674 0 14.3497 0C14.332 0 14.3143 0 14.2966 0C14.2789 0 14.2612 0 14.2435 0C14.2258 0 14.2082 0 14.1905 0C14.1728 0 14.1552 0 14.1375 0C14.1199 0 14.1022 0 14.0846 0C14.0669 0 14.0493 0 14.0317 0C14.014 0 13.9964 0 13.9788 0C13.9612 0 13.9436 0 13.926 0C13.9084 0 13.8908 0 13.8732 0C13.8556 0 13.8381 0 13.8205 0C13.8029 0 13.7854 0 13.7678 0C13.7503 0 13.7327 0 13.7152 0C13.6976 0 13.6801 0 13.6626 0C13.6451 0 13.6276 0 13.61 0C13.5925 0 13.575 0 13.5576 0C13.5401 0 13.5226 0 13.5051 0C13.4876 0 13.4702 0 13.4527 0C13.4353 0 13.4178 0 13.4004 0C13.3829 0 13.3655 0 13.3481 0C13.3306 0 13.3132 0 13.2958 0C13.2784 0 13.261 0 13.2436 0C13.2263 0 13.2089 0 13.1915 0C13.1741 0 13.1568 0 13.1394 0C13.1221 0 13.1047 0 13.0874 0C13.0701 0 13.0527 0 13.0354 0C13.0181 0 13.0008 0 12.9835 0C12.9662 0 12.9489 0 12.9317 0C12.9144 0 12.8971 0 12.8799 0C12.8626 0 12.8454 0 12.8281 0C12.8109 0 12.7937 0 12.7764 0C12.7592 0 12.742 0 12.7248 0C12.7076 0 12.6904 0 12.6733 0C12.6561 0 12.6389 0 12.6218 0C12.6046 0 12.5875 0 12.5703 0C12.5532 0 12.5361 0 12.519 0C12.5018 0 12.4847 0 12.4677 0C12.4506 0 12.4335 0 12.4164 0C12.3993 0 12.3823 0 12.3652 0C12.3482 0 12.3312 0 12.3141 0C12.2971 0 12.2801 0 12.2631 0C12.2461 0 12.2291 0 12.2121 0C12.1951 0 12.1782 0 12.1612 0C12.1443 0 12.1273 0 12.1104 0C12.0934 0 12.0765 0 12.0596 0C12.0427 0 12.0258 0 12.0089 0C11.992 0 11.9752 0 11.9583 0C11.9414 0 11.9246 0 11.9077 0C11.8909 0 11.8741 0 11.8573 0C11.8405 0 11.8237 0 11.8069 0C11.7901 0 11.7733 0 11.7565 0C11.7398 0 11.723 0 11.7063 0C11.6896 0 11.6728 0 11.6561 0C11.6394 0 11.6227 0 11.606 0C11.5893 0 11.5727 0 11.556 0C11.5393 0 11.5227 0 11.5061 0C11.4894 0 11.4728 0 11.4562 0C11.4396 0 11.423 0 11.4064 0C11.3898 0 11.3733 0 11.3567 0C11.3402 0 11.3236 0 11.3071 0C11.2906 0 11.2741 0 11.2576 0C11.2411 0 11.2246 0 11.2081 0C11.1916 0 11.1752 0 11.1587 0C11.1423 0 11.1259 0 11.1095 0C11.0931 0 11.0767 0 11.0603 0C11.0439 0 11.0275 0 11.0112 0C10.9948 0 10.9785 0 10.9621 0C10.9458 0 10.9295 0 10.9132 0C10.8969 0 10.8806 0 10.8643 0C10.8481 0 10.8318 0 10.8156 0C10.7993 0 10.7831 0 10.7669 0C10.7507 0 10.7345 0 10.7183 0C10.7022 0 10.686 0 10.6699 0C10.6537 0 10.6376 0 10.6215 0C10.6053 0 10.5892 0 10.5732 0C10.5571 0 10.541 0 10.525 0C10.5089 0 10.4929 0 10.4768 0C10.4608 0 10.4448 0 10.4288 0C10.4128 0 10.3969 0 10.3809 0C10.365 0 10.349 0 10.3331 0C10.3172 0 10.3013 0 10.2854 0C10.2695 0 10.2536 0 10.2377 0C10.2219 0 10.206 0 10.1902 0C10.1744 0 10.1586 0 10.1428 0C10.127 0 10.1112 0 10.0955 0C10.0797 0 10.064 0 10.0482 0C10.0325 0 10.0168 0 10.0011 0V20.0022ZM20.7655 11.9639L34.5481 80.8254L54.1613 76.8998L40.3787 8.03832L20.7655 11.9639ZM34.5452 80.811C35.4728 85.4809 38.0133 89.6758 41.7221 92.6614L54.2648 77.0803C54.2128 77.0385 54.1772 76.9797 54.1642 76.9142L34.5452 80.811ZM41.7221 92.6614C45.4308 95.6469 50.0715 97.2329 54.8318 97.1417L54.4486 77.1431C54.3818 77.1444 54.3168 77.1222 54.2648 77.0803L41.7221 92.6614ZM54.6402 97.1435H104.628V77.1413H54.6402V97.1435ZM104.436 97.1417C109.196 97.2329 113.837 95.6469 117.546 92.6614L105.003 77.0803C104.951 77.1222 104.886 77.1444 104.819 77.1431L104.436 97.1417ZM117.546 92.6614C121.255 89.6758 123.795 85.4809 124.723 80.811L105.104 76.9142C105.091 76.9797 105.055 77.0385 105.003 77.0803L117.546 92.6614ZM124.737 80.7361L132.966 37.5884L113.318 33.8414L105.089 76.9891L124.737 80.7361ZM123.142 35.7149C123.142 25.7138 123.141 25.7138 123.141 25.7138C123.141 25.7138 123.14 25.7138 123.139 25.7138C123.138 25.7138 123.137 25.7138 123.136 25.7138C123.135 25.7138 123.134 25.7138 123.132 25.7138C123.13 25.7138 123.128 25.7138 123.126 25.7138C123.124 25.7138 123.122 25.7138 123.12 25.7138C123.117 25.7138 123.115 25.7138 123.112 25.7138C123.109 25.7138 123.106 25.7138 123.103 25.7138C123.1 25.7138 123.096 25.7138 123.093 25.7138C123.089 25.7138 123.085 25.7138 123.081 25.7138C123.077 25.7138 123.073 25.7138 123.069 25.7138C123.064 25.7138 123.06 25.7138 123.055 25.7138C123.05 25.7138 123.045 25.7138 123.04 25.7138C123.035 25.7138 123.029 25.7138 123.024 25.7138C123.018 25.7138 123.012 25.7138 123.006 25.7138C123 25.7138 122.994 25.7138 122.988 25.7138C122.981 25.7138 122.975 25.7138 122.968 25.7138C122.961 25.7138 122.954 25.7138 122.947 25.7138C122.94 25.7138 122.933 25.7138 122.925 25.7138C122.918 25.7138 122.91 25.7138 122.902 25.7138C122.894 25.7138 122.886 25.7138 122.878 25.7138C122.869 25.7138 122.861 25.7138 122.852 25.7138C122.844 25.7138 122.835 25.7138 122.826 25.7138C122.817 25.7138 122.807 25.7138 122.798 25.7138C122.788 25.7138 122.779 25.7138 122.769 25.7138C122.759 25.7138 122.749 25.7138 122.739 25.7138C122.729 25.7138 122.718 25.7138 122.708 25.7138C122.697 25.7138 122.686 25.7138 122.675 25.7138C122.664 25.7138 122.653 25.7138 122.642 25.7138C122.631 25.7138 122.619 25.7138 122.607 25.7138C122.596 25.7138 122.584 25.7138 122.572 25.7138C122.56 25.7138 122.547 25.7138 122.535 25.7138C122.522 25.7138 122.51 25.7138 122.497 25.7138C122.484 25.7138 122.471 25.7138 122.458 25.7138C122.445 25.7138 122.431 25.7138 122.418 25.7138C122.404 25.7138 122.39 25.7138 122.377 25.7138C122.363 25.7138 122.348 25.7138 122.334 25.7138C122.32 25.7138 122.305 25.7138 122.291 25.7138C122.276 25.7138 122.261 25.7138 122.246 25.7138C122.231 25.7138 122.216 25.7138 122.201 25.7138C122.185 25.7138 122.17 25.7138 122.154 25.7138C122.138 25.7138 122.122 25.7138 122.106 25.7138C122.09 25.7138 122.074 25.7138 122.057 25.7138C122.041 25.7138 122.024 25.7138 122.007 25.7138C121.99 25.7138 121.973 25.7138 121.956 25.7138C121.939 25.7138 121.921 25.7138 121.904 25.7138C121.886 25.7138 121.869 25.7138 121.851 25.7138C121.833 25.7138 121.815 25.7138 121.796 25.7138C121.778 25.7138 121.76 25.7138 121.741 25.7138C121.722 25.7138 121.704 25.7138 121.685 25.7138C121.666 25.7138 121.646 25.7138 121.627 25.7138C121.608 25.7138 121.588 25.7138 121.569 25.7138C121.549 25.7138 121.529 25.7138 121.509 25.7138C121.489 25.7138 121.469 25.7138 121.448 25.7138C121.428 25.7138 121.408 25.7138 121.387 25.7138C121.366 25.7138 121.345 25.7138 121.324 25.7138C121.303 25.7138 121.282 25.7138 121.26 25.7138C121.239 25.7138 121.217 25.7138 121.196 25.7138C121.174 25.7138 121.152 25.7138 121.13 25.7138C121.108 25.7138 121.085 25.7138 121.063 25.7138C121.041 25.7138 121.018 25.7138 120.995 25.7138C120.972 25.7138 120.949 25.7138 120.926 25.7138C120.903 25.7138 120.88 25.7138 120.856 25.7138C120.833 25.7138 120.809 25.7138 120.785 25.7138C120.762 25.7138 120.738 25.7138 120.713 25.7138C120.689 25.7138 120.665 25.7138 120.641 25.7138C120.616 25.7138 120.591 25.7138 120.567 25.7138C120.542 25.7138 120.517 25.7138 120.492 25.7138C120.466 25.7138 120.441 25.7138 120.416 25.7138C120.39 25.7138 120.365 25.7138 120.339 25.7138C120.313 25.7138 120.287 25.7138 120.261 25.7138C120.235 25.7138 120.208 25.7138 120.182 25.7138C120.155 25.7138 120.129 25.7138 120.102 25.7138C120.075 25.7138 120.048 25.7138 120.021 25.7138C119.994 25.7138 119.967 25.7138 119.939 25.7138C119.912 25.7138 119.884 25.7138 119.856 25.7138C119.829 25.7138 119.801 25.7138 119.773 25.7138C119.744 25.7138 119.716 25.7138 119.688 25.7138C119.659 25.7138 119.631 25.7138 119.602 25.7138C119.573 25.7138 119.544 25.7138 119.515 25.7138C119.486 25.7138 119.457 25.7138 119.428 25.7138C119.398 25.7138 119.369 25.7138 119.339 25.7138C119.309 25.7138 119.279 25.7138 119.249 25.7138C119.219 25.7138 119.189 25.7138 119.159 25.7138C119.128 25.7138 119.098 25.7138 119.067 25.7138C119.037 25.7138 119.006 25.7138 118.975 25.7138C118.944 25.7138 118.913 25.7138 118.881 25.7138C118.85 25.7138 118.819 25.7138 118.787 25.7138C118.756 25.7138 118.724 25.7138 118.692 25.7138C118.66 25.7138 118.628 25.7138 118.596 25.7138C118.563 25.7138 118.531 25.7138 118.499 25.7138C118.466 25.7138 118.433 25.7138 118.401 25.7138C118.368 25.7138 118.335 25.7138 118.302 25.7138C118.268 25.7138 118.235 25.7138 118.202 25.7138C118.168 25.7138 118.135 25.7138 118.101 25.7138C118.067 25.7138 118.033 25.7138 117.999 25.7138C117.965 25.7138 117.931 25.7138 117.897 25.7138C117.862 25.7138 117.828 25.7138 117.793 25.7138C117.758 25.7138 117.724 25.7138 117.689 25.7138C117.654 25.7138 117.619 25.7138 117.583 25.7138C117.548 25.7138 117.513 25.7138 117.477 25.7138C117.442 25.7138 117.406 25.7138 117.37 25.7138C117.334 25.7138 117.298 25.7138 117.262 25.7138C117.226 25.7138 117.19 25.7138 117.153 25.7138C117.117 25.7138 117.08 25.7138 117.043 25.7138C117.007 25.7138 116.97 25.7138 116.933 25.7138C116.896 25.7138 116.859 25.7138 116.821 25.7138C116.784 25.7138 116.746 25.7138 116.709 25.7138C116.671 25.7138 116.633 25.7138 116.596 25.7138C116.558 25.7138 116.52 25.7138 116.481 25.7138C116.443 25.7138 116.405 25.7138 116.366 25.7138C116.328 25.7138 116.289 25.7138 116.251 25.7138C116.212 25.7138 116.173 25.7138 116.134 25.7138C116.095 25.7138 116.056 25.7138 116.016 25.7138C115.977 25.7138 115.937 25.7138 115.898 25.7138C115.858 25.7138 115.818 25.7138 115.779 25.7138C115.739 25.7138 115.699 25.7138 115.658 25.7138C115.618 25.7138 115.578 25.7138 115.538 25.7138C115.497 25.7138 115.456 25.7138 115.416 25.7138C115.375 25.7138 115.334 25.7138 115.293 25.7138C115.252 25.7138 115.211 25.7138 115.17 25.7138C115.128 25.7138 115.087 25.7138 115.045 25.7138C115.004 25.7138 114.962 25.7138 114.92 25.7138C114.878 25.7138 114.836 25.7138 114.794 25.7138C114.752 25.7138 114.71 25.7138 114.668 25.7138C114.625 25.7138 114.583 25.7138 114.54 25.7138C114.497 25.7138 114.455 25.7138 114.412 25.7138C114.369 25.7138 114.326 25.7138 114.282 25.7138C114.239 25.7138 114.196 25.7138 114.152 25.7138C114.109 25.7138 114.065 25.7138 114.022 25.7138C113.978 25.7138 113.934 25.7138 113.89 25.7138C113.846 25.7138 113.802 25.7138 113.758 25.7138C113.713 25.7138 113.669 25.7138 113.625 25.7138C113.58 25.7138 113.535 25.7138 113.491 25.7138C113.446 25.7138 113.401 25.7138 113.356 25.7138C113.311 25.7138 113.266 25.7138 113.22 25.7138C113.175 25.7138 113.13 25.7138 113.084 25.7138C113.038 25.7138 112.993 25.7138 112.947 25.7138C112.901 25.7138 112.855 25.7138 112.809 25.7138C112.763 25.7138 112.717 25.7138 112.67 25.7138C112.624 25.7138 112.578 25.7138 112.531 25.7138C112.484 25.7138 112.438 25.7138 112.391 25.7138C112.344 25.7138 112.297 25.7138 112.25 25.7138C112.203 25.7138 112.156 25.7138 112.108 25.7138C112.061 25.7138 112.013 25.7138 111.966 25.7138C111.918 25.7138 111.871 25.7138 111.823 25.7138C111.775 25.7138 111.727 25.7138 111.679 25.7138C111.631 25.7138 111.582 25.7138 111.534 25.7138C111.486 25.7138 111.437 25.7138 111.389 25.7138C111.34 25.7138 111.291 25.7138 111.243 25.7138C111.194 25.7138 111.145 25.7138 111.096 25.7138C111.047 25.7138 110.997 25.7138 110.948 25.7138C110.899 25.7138 110.849 25.7138 110.8 25.7138C110.75 25.7138 110.7 25.7138 110.651 25.7138C110.601 25.7138 110.551 25.7138 110.501 25.7138C110.451 25.7138 110.401 25.7138 110.35 25.7138C110.3 25.7138 110.25 25.7138 110.199 25.7138C110.149 25.7138 110.098 25.7138 110.047 25.7138C109.996 25.7138 109.946 25.7138 109.895 25.7138C109.844 25.7138 109.792 25.7138 109.741 25.7138C109.69 25.7138 109.639 25.7138 109.587 25.7138C109.536 25.7138 109.484 25.7138 109.432 25.7138C109.381 25.7138 109.329 25.7138 109.277 25.7138C109.225 25.7138 109.173 25.7138 109.121 25.7138C109.069 25.7138 109.016 25.7138 108.964 25.7138C108.912 25.7138 108.859 25.7138 108.807 25.7138C108.754 25.7138 108.701 25.7138 108.648 25.7138C108.596 25.7138 108.543 25.7138 108.49 25.7138C108.436 25.7138 108.383 25.7138 108.33 25.7138C108.277 25.7138 108.223 25.7138 108.17 25.7138C108.116 25.7138 108.063 25.7138 108.009 25.7138C107.955 25.7138 107.901 25.7138 107.847 25.7138C107.793 25.7138 107.739 25.7138 107.685 25.7138C107.631 25.7138 107.577 25.7138 107.522 25.7138C107.468 25.7138 107.413 25.7138 107.359 25.7138C107.304 25.7138 107.249 25.7138 107.195 25.7138C107.14 25.7138 107.085 25.7138 107.03 25.7138C106.975 25.7138 106.92 25.7138 106.864 25.7138C106.809 25.7138 106.754 25.7138 106.698 25.7138C106.643 25.7138 106.587 25.7138 106.531 25.7138C106.476 25.7138 106.42 25.7138 106.364 25.7138C106.308 25.7138 106.252 25.7138 106.196 25.7138C106.14 25.7138 106.084 25.7138 106.027 25.7138C105.971 25.7138 105.915 25.7138 105.858 25.7138C105.802 25.7138 105.745 25.7138 105.688 25.7138C105.631 25.7138 105.575 25.7138 105.518 25.7138C105.461 25.7138 105.404 25.7138 105.347 25.7138C105.289 25.7138 105.232 25.7138 105.175 25.7138C105.117 25.7138 105.06 25.7138 105.002 25.7138C104.945 25.7138 104.887 25.7138 104.829 25.7138C104.772 25.7138 104.714 25.7138 104.656 25.7138C104.598 25.7138 104.54 25.7138 104.482 25.7138C104.423 25.7138 104.365 25.7138 104.307 25.7138C104.248 25.7138 104.19 25.7138 104.131 25.7138C104.073 25.7138 104.014 25.7138 103.956 25.7138C103.897 25.7138 103.838 25.7138 103.779 25.7138C103.72 25.7138 103.661 25.7138 103.602 25.7138C103.543 25.7138 103.483 25.7138 103.424 25.7138C103.365 25.7138 103.305 25.7138 103.246 25.7138C103.186 25.7138 103.127 25.7138 103.067 25.7138C103.007 25.7138 102.947 25.7138 102.887 25.7138C102.828 25.7138 102.768 25.7138 102.707 25.7138C102.647 25.7138 102.587 25.7138 102.527 25.7138C102.467 25.7138 102.406 25.7138 102.346 25.7138C102.285 25.7138 102.225 25.7138 102.164 25.7138C102.103 25.7138 102.043 25.7138 101.982 25.7138C101.921 25.7138 101.86 25.7138 101.799 25.7138C101.738 25.7138 101.677 25.7138 101.616 25.7138C101.554 25.7138 101.493 25.7138 101.432 25.7138C101.37 25.7138 101.309 25.7138 101.247 25.7138C101.186 25.7138 101.124 25.7138 101.062 25.7138C101 25.7138 100.939 25.7138 100.877 25.7138C100.815 25.7138 100.753 25.7138 100.691 25.7138C100.629 25.7138 100.566 25.7138 100.504 25.7138C100.442 25.7138 100.379 25.7138 100.317 25.7138C100.254 25.7138 100.192 25.7138 100.129 25.7138C100.067 25.7138 100.004 25.7138 99.9411 25.7138C99.8783 25.7138 99.8154 25.7138 99.7525 25.7138C99.6895 25.7138 99.6264 25.7138 99.5633 25.7138C99.5001 25.7138 99.4369 25.7138 99.3736 25.7138C99.3103 25.7138 99.2468 25.7138 99.1834 25.7138C99.1199 25.7138 99.0563 25.7138 98.9926 25.7138C98.929 25.7138 98.8653 25.7138 98.8014 25.7138C98.7376 25.7138 98.6737 25.7138 98.6097 25.7138C98.5457 25.7138 98.4817 25.7138 98.4175 25.7138C98.3534 25.7138 98.2891 25.7138 98.2248 25.7138C98.1605 25.7138 98.0961 25.7138 98.0316 25.7138C97.9672 25.7138 97.9026 25.7138 97.838 25.7138C97.7733 25.7138 97.7086 25.7138 97.6438 25.7138C97.579 25.7138 97.5141 25.7138 97.4492 25.7138C97.3842 25.7138 97.3192 25.7138 97.2541 25.7138C97.189 25.7138 97.1238 25.7138 97.0585 25.7138C96.9932 25.7138 96.9279 25.7138 96.8625 25.7138C96.797 25.7138 96.7315 25.7138 96.666 25.7138C96.6004 25.7138 96.5347 25.7138 96.469 25.7138C96.4032 25.7138 96.3374 25.7138 96.2716 25.7138C96.2057 25.7138 96.1397 25.7138 96.0737 25.7138C96.0076 25.7138 95.9415 25.7138 95.8753 25.7138C95.8091 25.7138 95.7429 25.7138 95.6765 25.7138C95.6102 25.7138 95.5438 25.7138 95.4773 25.7138C95.4108 25.7138 95.3443 25.7138 95.2776 25.7138C95.211 25.7138 95.1443 25.7138 95.0775 25.7138C95.0107 25.7138 94.9439 25.7138 94.877 25.7138C94.8101 25.7138 94.7431 25.7138 94.676 25.7138C94.6089 25.7138 94.5418 25.7138 94.4746 25.7138C94.4074 25.7138 94.3401 25.7138 94.2727 25.7138C94.2054 25.7138 94.138 25.7138 94.0705 25.7138C94.003 25.7138 93.9354 25.7138 93.8678 25.7138C93.8002 25.7138 93.7325 25.7138 93.6647 25.7138C93.5969 25.7138 93.5291 25.7138 93.4612 25.7138C93.3933 25.7138 93.3253 25.7138 93.2573 25.7138C93.1892 25.7138 93.1211 25.7138 93.0529 25.7138C92.9848 25.7138 92.9165 25.7138 92.8482 25.7138C92.7799 25.7138 92.7115 25.7138 92.6431 25.7138C92.5746 25.7138 92.5061 25.7138 92.4375 25.7138C92.369 25.7138 92.3003 25.7138 92.2316 25.7138C92.1629 25.7138 92.0941 25.7138 92.0253 25.7138C91.9565 25.7138 91.8876 25.7138 91.8186 25.7138C91.7496 25.7138 91.6806 25.7138 91.6115 25.7138C91.5424 25.7138 91.4733 25.7138 91.404 25.7138C91.3348 25.7138 91.2655 25.7138 91.1962 25.7138C91.1269 25.7138 91.0574 25.7138 90.988 25.7138C90.9185 25.7138 90.849 25.7138 90.7794 25.7138C90.7098 25.7138 90.6401 25.7138 90.5704 25.7138C90.5007 25.7138 90.4309 25.7138 90.3611 25.7138C90.2913 25.7138 90.2214 25.7138 90.1514 25.7138C90.0815 25.7138 90.0114 25.7138 89.9414 25.7138C89.8713 25.7138 89.8012 25.7138 89.731 25.7138C89.6608 25.7138 89.5905 25.7138 89.5202 25.7138C89.4499 25.7138 89.3795 25.7138 89.3091 25.7138C89.2387 25.7138 89.1682 25.7138 89.0977 25.7138C89.0271 25.7138 88.9565 25.7138 88.8859 25.7138C88.8152 25.7138 88.7445 25.7138 88.6738 25.7138C88.603 25.7138 88.5322 25.7138 88.4613 25.7138C88.3904 25.7138 88.3195 25.7138 88.2485 25.7138C88.1775 25.7138 88.1065 25.7138 88.0354 25.7138C87.9643 25.7138 87.8931 25.7138 87.8219 25.7138C87.7507 25.7138 87.6795 25.7138 87.6082 25.7138C87.5368 25.7138 87.4655 25.7138 87.3941 25.7138C87.3227 25.7138 87.2512 25.7138 87.1797 25.7138C87.1081 25.7138 87.0366 25.7138 86.9649 25.7138C86.8933 25.7138 86.8216 25.7138 86.7499 25.7138C86.6782 25.7138 86.6064 25.7138 86.5346 25.7138C86.4627 25.7138 86.3909 25.7138 86.3189 25.7138C86.247 25.7138 86.175 25.7138 86.103 25.7138C86.031 25.7138 85.9589 25.7138 85.8868 25.7138C85.8146 25.7138 85.7424 25.7138 85.6702 25.7138C85.598 25.7138 85.5257 25.7138 85.4534 25.7138C85.3811 25.7138 85.3087 25.7138 85.2363 25.7138C85.1639 25.7138 85.0914 25.7138 85.0189 25.7138C84.9464 25.7138 84.8738 25.7138 84.8012 25.7138C84.7286 25.7138 84.656 25.7138 84.5833 25.7138C84.5106 25.7138 84.4378 25.7138 84.3651 25.7138C84.2923 25.7138 84.2194 25.7138 84.1466 25.7138C84.0737 25.7138 84.0008 25.7138 83.9278 25.7138C83.8548 25.7138 83.7818 25.7138 83.7088 25.7138C83.6357 25.7138 83.5626 25.7138 83.4895 25.7138C83.4163 25.7138 83.3432 25.7138 83.2699 25.7138C83.1967 25.7138 83.1234 25.7138 83.0501 25.7138C82.9768 25.7138 82.9035 25.7138 82.8301 25.7138C82.7567 25.7138 82.6832 25.7138 82.6098 25.7138C82.5363 25.7138 82.4628 25.7138 82.3892 25.7138C82.3157 25.7138 82.2421 25.7138 82.1684 25.7138C82.0948 25.7138 82.0211 25.7138 81.9474 25.7138C81.8737 25.7138 81.7999 25.7138 81.7261 25.7138C81.6524 25.7138 81.5785 25.7138 81.5047 25.7138C81.4308 25.7138 81.3569 25.7138 81.2829 25.7138C81.209 25.7138 81.135 25.7138 81.061 25.7138C80.987 25.7138 80.9129 25.7138 80.8388 25.7138C80.7647 25.7138 80.6906 25.7138 80.6164 25.7138C80.5423 25.7138 80.4681 25.7138 80.3938 25.7138C80.3196 25.7138 80.2453 25.7138 80.171 25.7138C80.0967 25.7138 80.0223 25.7138 79.948 25.7138C79.8736 25.7138 79.7992 25.7138 79.7247 25.7138C79.6503 25.7138 79.5758 25.7138 79.5013 25.7138C79.4268 25.7138 79.3522 25.7138 79.2777 25.7138C79.2031 25.7138 79.1285 25.7138 79.0538 25.7138C78.9792 25.7138 78.9045 25.7138 78.8298 25.7138C78.7551 25.7138 78.6804 25.7138 78.6056 25.7138C78.5308 25.7138 78.456 25.7138 78.3812 25.7138C78.3063 25.7138 78.2315 25.7138 78.1566 25.7138C78.0817 25.7138 78.0068 25.7138 77.9318 25.7138C77.8569 25.7138 77.7819 25.7138 77.7069 25.7138C77.6319 25.7138 77.5568 25.7138 77.4818 25.7138C77.4067 25.7138 77.3316 25.7138 77.2565 25.7138C77.1814 25.7138 77.1062 25.7138 77.031 25.7138C76.9558 25.7138 76.8806 25.7138 76.8054 25.7138C76.7302 25.7138 76.6549 25.7138 76.5796 25.7138C76.5043 25.7138 76.429 25.7138 76.3537 25.7138C76.2783 25.7138 76.203 25.7138 76.1276 25.7138C76.0522 25.7138 75.9768 25.7138 75.9013 25.7138C75.8259 25.7138 75.7504 25.7138 75.675 25.7138C75.5995 25.7138 75.5239 25.7138 75.4484 25.7138C75.3729 25.7138 75.2973 25.7138 75.2217 25.7138C75.1462 25.7138 75.0706 25.7138 74.9949 25.7138C74.9193 25.7138 74.8436 25.7138 74.768 25.7138C74.6923 25.7138 74.6166 25.7138 74.5409 25.7138C74.4652 25.7138 74.3894 25.7138 74.3137 25.7138C74.2379 25.7138 74.1621 25.7138 74.0863 25.7138C74.0105 25.7138 73.9347 25.7138 73.8589 25.7138C73.783 25.7138 73.7072 25.7138 73.6313 25.7138C73.5554 25.7138 73.4795 25.7138 73.4036 25.7138C73.3277 25.7138 73.2518 25.7138 73.1758 25.7138C73.0999 25.7138 73.0239 25.7138 72.9479 25.7138C72.8719 25.7138 72.7959 25.7138 72.7199 25.7138C72.6438 25.7138 72.5678 25.7138 72.4917 25.7138C72.4157 25.7138 72.3396 25.7138 72.2635 25.7138C72.1874 25.7138 72.1113 25.7138 72.0352 25.7138C71.9591 25.7138 71.8829 25.7138 71.8068 25.7138C71.7306 25.7138 71.6545 25.7138 71.5783 25.7138C71.5021 25.7138 71.4259 25.7138 71.3497 25.7138C71.2735 25.7138 71.1973 25.7138 71.121 25.7138C71.0448 25.7138 70.9686 25.7138 70.8923 25.7138C70.816 25.7138 70.7398 25.7138 70.6635 25.7138C70.5872 25.7138 70.5109 25.7138 70.4346 25.7138C70.3583 25.7138 70.2819 25.7138 70.2056 25.7138C70.1293 25.7138 70.0529 25.7138 69.9766 25.7138C69.9002 25.7138 69.8238 25.7138 69.7475 25.7138C69.6711 25.7138 69.5947 25.7138 69.5183 25.7138C69.4419 25.7138 69.3655 25.7138 69.2891 25.7138C69.2127 25.7138 69.1362 25.7138 69.0598 25.7138C68.9834 25.7138 68.9069 25.7138 68.8305 25.7138C68.754 25.7138 68.6776 25.7138 68.6011 25.7138C68.5246 25.7138 68.4482 25.7138 68.3717 25.7138C68.2952 25.7138 68.2187 25.7138 68.1422 25.7138C68.0657 25.7138 67.9892 25.7138 67.9127 25.7138C67.8362 25.7138 67.7597 25.7138 67.6832 25.7138C67.6067 25.7138 67.5302 25.7138 67.4537 25.7138C67.3771 25.7138 67.3006 25.7138 67.2241 25.7138C67.1475 25.7138 67.071 25.7138 66.9945 25.7138C66.9179 25.7138 66.8414 25.7138 66.7648 25.7138C66.6883 25.7138 66.6117 25.7138 66.5352 25.7138C66.4586 25.7138 66.3821 25.7138 66.3055 25.7138C66.2289 25.7138 66.1524 25.7138 66.0758 25.7138C65.9993 25.7138 65.9227 25.7138 65.8461 25.7138C65.7696 25.7138 65.693 25.7138 65.6164 25.7138C65.5399 25.7138 65.4633 25.7138 65.3867 25.7138C65.3102 25.7138 65.2336 25.7138 65.157 25.7138C65.0805 25.7138 65.0039 25.7138 64.9274 25.7138C64.8508 25.7138 64.7742 25.7138 64.6977 25.7138C64.6211 25.7138 64.5446 25.7138 64.468 25.7138C64.3914 25.7138 64.3149 25.7138 64.2383 25.7138C64.1618 25.7138 64.0852 25.7138 64.0087 25.7138C63.9322 25.7138 63.8556 25.7138 63.7791 25.7138C63.7025 25.7138 63.626 25.7138 63.5495 25.7138C63.473 25.7138 63.3964 25.7138 63.3199 25.7138C63.2434 25.7138 63.1669 25.7138 63.0904 25.7138C63.0139 25.7138 62.9374 25.7138 62.8609 25.7138C62.7844 25.7138 62.7079 25.7138 62.6314 25.7138C62.5549 25.7138 62.4784 25.7138 62.402 25.7138C62.3255 25.7138 62.249 25.7138 62.1726 25.7138C62.0961 25.7138 62.0197 25.7138 61.9432 25.7138C61.8668 25.7138 61.7904 25.7138 61.7139 25.7138C61.6375 25.7138 61.5611 25.7138 61.4847 25.7138C61.4083 25.7138 61.3319 25.7138 61.2555 25.7138C61.1791 25.7138 61.1028 25.7138 61.0264 25.7138C60.95 25.7138 60.8737 25.7138 60.7973 25.7138C60.721 25.7138 60.6447 25.7138 60.5683 25.7138C60.492 25.7138 60.4157 25.7138 60.3394 25.7138C60.2631 25.7138 60.1868 25.7138 60.1106 25.7138C60.0343 25.7138 59.958 25.7138 59.8818 25.7138C59.8055 25.7138 59.7293 25.7138 59.6531 25.7138C59.5769 25.7138 59.5007 25.7138 59.4245 25.7138C59.3483 25.7138 59.2721 25.7138 59.1959 25.7138C59.1198 25.7138 59.0436 25.7138 58.9675 25.7138C58.8914 25.7138 58.8152 25.7138 58.7391 25.7138C58.663 25.7138 58.587 25.7138 58.5109 25.7138C58.4348 25.7138 58.3588 25.7138 58.2827 25.7138C58.2067 25.7138 58.1307 25.7138 58.0547 25.7138C57.9787 25.7138 57.9027 25.7138 57.8267 25.7138C57.7508 25.7138 57.6748 25.7138 57.5989 25.7138C57.5229 25.7138 57.447 25.7138 57.3711 25.7138C57.2952 25.7138 57.2194 25.7138 57.1435 25.7138C57.0677 25.7138 56.9918 25.7138 56.916 25.7138C56.8402 25.7138 56.7644 25.7138 56.6886 25.7138C56.6129 25.7138 56.5371 25.7138 56.4614 25.7138C56.3857 25.7138 56.3099 25.7138 56.2343 25.7138C56.1586 25.7138 56.0829 25.7138 56.0073 25.7138C55.9316 25.7138 55.856 25.7138 55.7804 25.7138C55.7048 25.7138 55.6292 25.7138 55.5537 25.7138C55.4781 25.7138 55.4026 25.7138 55.3271 25.7138C55.2516 25.7138 55.1761 25.7138 55.1006 25.7138C55.0252 25.7138 54.9497 25.7138 54.8743 25.7138C54.7989 25.7138 54.7235 25.7138 54.6482 25.7138C54.5728 25.7138 54.4975 25.7138 54.4222 25.7138C54.3469 25.7138 54.2716 25.7138 54.1964 25.7138C54.1211 25.7138 54.0459 25.7138 53.9707 25.7138C53.8955 25.7138 53.8203 25.7138 53.7452 25.7138C53.67 25.7138 53.5949 25.7138 53.5198 25.7138C53.4447 25.7138 53.3697 25.7138 53.2946 25.7138C53.2196 25.7138 53.1446 25.7138 53.0696 25.7138C52.9947 25.7138 52.9197 25.7138 52.8448 25.7138C52.7699 25.7138 52.695 25.7138 52.6201 25.7138C52.5453 25.7138 52.4705 25.7138 52.3957 25.7138C52.3209 25.7138 52.2461 25.7138 52.1714 25.7138C52.0967 25.7138 52.022 25.7138 51.9473 25.7138C51.8726 25.7138 51.798 25.7138 51.7234 25.7138C51.6488 25.7138 51.5742 25.7138 51.4997 25.7138C51.4251 25.7138 51.3506 25.7138 51.2762 25.7138C51.2017 25.7138 51.1273 25.7138 51.0529 25.7138C50.9785 25.7138 50.9041 25.7138 50.8298 25.7138C50.7554 25.7138 50.6811 25.7138 50.6069 25.7138C50.5326 25.7138 50.4584 25.7138 50.3842 25.7138C50.31 25.7138 50.2358 25.7138 50.1617 25.7138C50.0876 25.7138 50.0135 25.7138 49.9395 25.7138C49.8654 25.7138 49.7914 25.7138 49.7174 25.7138C49.6435 25.7138 49.5695 25.7138 49.4956 25.7138C49.4217 25.7138 49.3479 25.7138 49.2741 25.7138C49.2002 25.7138 49.1265 25.7138 49.0527 25.7138C48.979 25.7138 48.9053 25.7138 48.8316 25.7138C48.7579 25.7138 48.6843 25.7138 48.6107 25.7138C48.5371 25.7138 48.4636 25.7138 48.3901 25.7138C48.3166 25.7138 48.2431 25.7138 48.1697 25.7138C48.0963 25.7138 48.0229 25.7138 47.9496 25.7138C47.8762 25.7138 47.8029 25.7138 47.7297 25.7138C47.6564 25.7138 47.5832 25.7138 47.51 25.7138C47.4369 25.7138 47.3637 25.7138 47.2906 25.7138C47.2176 25.7138 47.1445 25.7138 47.0715 25.7138C46.9985 25.7138 46.9256 25.7138 46.8527 25.7138C46.7798 25.7138 46.7069 25.7138 46.6341 25.7138C46.5613 25.7138 46.4885 25.7138 46.4157 25.7138C46.343 25.7138 46.2703 25.7138 46.1977 25.7138C46.1251 25.7138 46.0525 25.7138 45.9799 25.7138C45.9074 25.7138 45.8349 25.7138 45.7624 25.7138C45.69 25.7138 45.6176 25.7138 45.5452 25.7138C45.4729 25.7138 45.4006 25.7138 45.3283 25.7138C45.256 25.7138 45.1838 25.7138 45.1117 25.7138C45.0395 25.7138 44.9674 25.7138 44.8953 25.7138C44.8233 25.7138 44.7512 25.7138 44.6793 25.7138C44.6073 25.7138 44.5354 25.7138 44.4635 25.7138C44.3917 25.7138 44.3198 25.7138 44.2481 25.7138C44.1763 25.7138 44.1046 25.7138 44.0329 25.7138C43.9613 25.7138 43.8897 25.7138 43.8181 25.7138C43.7465 25.7138 43.675 25.7138 43.6036 25.7138C43.5321 25.7138 43.4607 25.7138 43.3894 25.7138C43.318 25.7138 43.2467 25.7138 43.1755 25.7138C43.1042 25.7138 43.0331 25.7138 42.9619 25.7138C42.8908 25.7138 42.8197 25.7138 42.7487 25.7138C42.6777 25.7138 42.6067 25.7138 42.5358 25.7138C42.4649 25.7138 42.394 25.7138 42.3232 25.7138C42.2524 25.7138 42.1816 25.7138 42.1109 25.7138C42.0402 25.7138 41.9696 25.7138 41.899 25.7138C41.8284 25.7138 41.7579 25.7138 41.6875 25.7138C41.617 25.7138 41.5466 25.7138 41.4762 25.7138C41.4059 25.7138 41.3356 25.7138 41.2654 25.7138C41.1951 25.7138 41.1249 25.7138 41.0548 25.7138C40.9847 25.7138 40.9147 25.7138 40.8447 25.7138C40.7747 25.7138 40.7047 25.7138 40.6348 25.7138C40.565 25.7138 40.4951 25.7138 40.4254 25.7138C40.3556 25.7138 40.2859 25.7138 40.2163 25.7138C40.1467 25.7138 40.0771 25.7138 40.0076 25.7138C39.9381 25.7138 39.8686 25.7138 39.7992 25.7138C39.7298 25.7138 39.6605 25.7138 39.5912 25.7138C39.522 25.7138 39.4528 25.7138 39.3836 25.7138C39.3145 25.7138 39.2454 25.7138 39.1764 25.7138C39.1074 25.7138 39.0385 25.7138 38.9696 25.7138C38.9007 25.7138 38.8319 25.7138 38.7631 25.7138C38.6944 25.7138 38.6257 25.7138 38.5571 25.7138C38.4884 25.7138 38.4199 25.7138 38.3514 25.7138C38.2829 25.7138 38.2145 25.7138 38.1461 25.7138C38.0777 25.7138 38.0095 25.7138 37.9412 25.7138C37.873 25.7138 37.8048 25.7138 37.7368 25.7138C37.6687 25.7138 37.6006 25.7138 37.5327 25.7138C37.4647 25.7138 37.3968 25.7138 37.329 25.7138C37.2612 25.7138 37.1935 25.7138 37.1258 25.7138C37.0581 25.7138 36.9905 25.7138 36.923 25.7138C36.8554 25.7138 36.7879 25.7138 36.7205 25.7138C36.6531 25.7138 36.5858 25.7138 36.5185 25.7138C36.4513 25.7138 36.3841 25.7138 36.317 25.7138C36.2499 25.7138 36.1828 25.7138 36.1158 25.7138C36.0489 25.7138 35.982 25.7138 35.9151 25.7138C35.8483 25.7138 35.7815 25.7138 35.7149 25.7138V45.716C35.7815 45.716 35.8483 45.716 35.9151 45.716C35.982 45.716 36.0489 45.716 36.1158 45.716C36.1828 45.716 36.2499 45.716 36.317 45.716C36.3841 45.716 36.4513 45.716 36.5185 45.716C36.5858 45.716 36.6531 45.716 36.7205 45.716C36.7879 45.716 36.8554 45.716 36.923 45.716C36.9905 45.716 37.0581 45.716 37.1258 45.716C37.1935 45.716 37.2612 45.716 37.329 45.716C37.3968 45.716 37.4647 45.716 37.5327 45.716C37.6006 45.716 37.6687 45.716 37.7368 45.716C37.8048 45.716 37.873 45.716 37.9412 45.716C38.0095 45.716 38.0777 45.716 38.1461 45.716C38.2145 45.716 38.2829 45.716 38.3514 45.716C38.4199 45.716 38.4884 45.716 38.5571 45.716C38.6257 45.716 38.6944 45.716 38.7631 45.716C38.8319 45.716 38.9007 45.716 38.9696 45.716C39.0385 45.716 39.1074 45.716 39.1764 45.716C39.2454 45.716 39.3145 45.716 39.3836 45.716C39.4528 45.716 39.522 45.716 39.5912 45.716C39.6605 45.716 39.7298 45.716 39.7992 45.716C39.8686 45.716 39.9381 45.716 40.0076 45.716C40.0771 45.716 40.1467 45.716 40.2163 45.716C40.2859 45.716 40.3556 45.716 40.4254 45.716C40.4951 45.716 40.565 45.716 40.6348 45.716C40.7047 45.716 40.7747 45.716 40.8447 45.716C40.9147 45.716 40.9847 45.716 41.0548 45.716C41.1249 45.716 41.1951 45.716 41.2654 45.716C41.3356 45.716 41.4059 45.716 41.4762 45.716C41.5466 45.716 41.617 45.716 41.6875 45.716C41.7579 45.716 41.8284 45.716 41.899 45.716C41.9696 45.716 42.0402 45.716 42.1109 45.716C42.1816 45.716 42.2524 45.716 42.3232 45.716C42.394 45.716 42.4649 45.716 42.5358 45.716C42.6067 45.716 42.6777 45.716 42.7487 45.716C42.8197 45.716 42.8908 45.716 42.9619 45.716C43.0331 45.716 43.1042 45.716 43.1755 45.716C43.2467 45.716 43.318 45.716 43.3894 45.716C43.4607 45.716 43.5321 45.716 43.6036 45.716C43.675 45.716 43.7465 45.716 43.8181 45.716C43.8897 45.716 43.9613 45.716 44.0329 45.716C44.1046 45.716 44.1763 45.716 44.2481 45.716C44.3198 45.716 44.3917 45.716 44.4635 45.716C44.5354 45.716 44.6073 45.716 44.6793 45.716C44.7512 45.716 44.8233 45.716 44.8953 45.716C44.9674 45.716 45.0395 45.716 45.1117 45.716C45.1838 45.716 45.256 45.716 45.3283 45.716C45.4006 45.716 45.4729 45.716 45.5452 45.716C45.6176 45.716 45.69 45.716 45.7624 45.716C45.8349 45.716 45.9074 45.716 45.9799 45.716C46.0525 45.716 46.1251 45.716 46.1977 45.716C46.2703 45.716 46.343 45.716 46.4157 45.716C46.4885 45.716 46.5613 45.716 46.6341 45.716C46.7069 45.716 46.7798 45.716 46.8527 45.716C46.9256 45.716 46.9985 45.716 47.0715 45.716C47.1445 45.716 47.2176 45.716 47.2906 45.716C47.3637 45.716 47.4369 45.716 47.51 45.716C47.5832 45.716 47.6564 45.716 47.7297 45.716C47.8029 45.716 47.8762 45.716 47.9496 45.716C48.0229 45.716 48.0963 45.716 48.1697 45.716C48.2431 45.716 48.3166 45.716 48.3901 45.716C48.4636 45.716 48.5371 45.716 48.6107 45.716C48.6843 45.716 48.7579 45.716 48.8316 45.716C48.9053 45.716 48.979 45.716 49.0527 45.716C49.1265 45.716 49.2002 45.716 49.2741 45.716C49.3479 45.716 49.4217 45.716 49.4956 45.716C49.5695 45.716 49.6435 45.716 49.7174 45.716C49.7914 45.716 49.8654 45.716 49.9395 45.716C50.0135 45.716 50.0876 45.716 50.1617 45.716C50.2358 45.716 50.31 45.716 50.3842 45.716C50.4584 45.716 50.5326 45.716 50.6069 45.716C50.6811 45.716 50.7554 45.716 50.8298 45.716C50.9041 45.716 50.9785 45.716 51.0529 45.716C51.1273 45.716 51.2017 45.716 51.2762 45.716C51.3506 45.716 51.4251 45.716 51.4997 45.716C51.5742 45.716 51.6488 45.716 51.7234 45.716C51.798 45.716 51.8726 45.716 51.9473 45.716C52.022 45.716 52.0967 45.716 52.1714 45.716C52.2461 45.716 52.3209 45.716 52.3957 45.716C52.4705 45.716 52.5453 45.716 52.6201 45.716C52.695 45.716 52.7699 45.716 52.8448 45.716C52.9197 45.716 52.9947 45.716 53.0696 45.716C53.1446 45.716 53.2196 45.716 53.2946 45.716C53.3697 45.716 53.4447 45.716 53.5198 45.716C53.5949 45.716 53.67 45.716 53.7452 45.716C53.8203 45.716 53.8955 45.716 53.9707 45.716C54.0459 45.716 54.1211 45.716 54.1964 45.716C54.2716 45.716 54.3469 45.716 54.4222 45.716C54.4975 45.716 54.5728 45.716 54.6482 45.716C54.7235 45.716 54.7989 45.716 54.8743 45.716C54.9497 45.716 55.0252 45.716 55.1006 45.716C55.1761 45.716 55.2516 45.716 55.3271 45.716C55.4026 45.716 55.4781 45.716 55.5537 45.716C55.6292 45.716 55.7048 45.716 55.7804 45.716C55.856 45.716 55.9316 45.716 56.0073 45.716C56.0829 45.716 56.1586 45.716 56.2343 45.716C56.3099 45.716 56.3857 45.716 56.4614 45.716C56.5371 45.716 56.6129 45.716 56.6886 45.716C56.7644 45.716 56.8402 45.716 56.916 45.716C56.9918 45.716 57.0677 45.716 57.1435 45.716C57.2194 45.716 57.2952 45.716 57.3711 45.716C57.447 45.716 57.5229 45.716 57.5989 45.716C57.6748 45.716 57.7508 45.716 57.8267 45.716C57.9027 45.716 57.9787 45.716 58.0547 45.716C58.1307 45.716 58.2067 45.716 58.2827 45.716C58.3588 45.716 58.4348 45.716 58.5109 45.716C58.587 45.716 58.663 45.716 58.7391 45.716C58.8152 45.716 58.8914 45.716 58.9675 45.716C59.0436 45.716 59.1198 45.716 59.1959 45.716C59.2721 45.716 59.3483 45.716 59.4245 45.716C59.5007 45.716 59.5769 45.716 59.6531 45.716C59.7293 45.716 59.8055 45.716 59.8818 45.716C59.958 45.716 60.0343 45.716 60.1106 45.716C60.1868 45.716 60.2631 45.716 60.3394 45.716C60.4157 45.716 60.492 45.716 60.5683 45.716C60.6447 45.716 60.721 45.716 60.7973 45.716C60.8737 45.716 60.95 45.716 61.0264 45.716C61.1028 45.716 61.1791 45.716 61.2555 45.716C61.3319 45.716 61.4083 45.716 61.4847 45.716C61.5611 45.716 61.6375 45.716 61.7139 45.716C61.7904 45.716 61.8668 45.716 61.9432 45.716C62.0197 45.716 62.0961 45.716 62.1726 45.716C62.249 45.716 62.3255 45.716 62.402 45.716C62.4784 45.716 62.5549 45.716 62.6314 45.716C62.7079 45.716 62.7844 45.716 62.8609 45.716C62.9374 45.716 63.0139 45.716 63.0904 45.716C63.1669 45.716 63.2434 45.716 63.3199 45.716C63.3964 45.716 63.473 45.716 63.5495 45.716C63.626 45.716 63.7025 45.716 63.7791 45.716C63.8556 45.716 63.9322 45.716 64.0087 45.716C64.0852 45.716 64.1618 45.716 64.2383 45.716C64.3149 45.716 64.3914 45.716 64.468 45.716C64.5446 45.716 64.6211 45.716 64.6977 45.716C64.7742 45.716 64.8508 45.716 64.9274 45.716C65.0039 45.716 65.0805 45.716 65.157 45.716C65.2336 45.716 65.3102 45.716 65.3867 45.716C65.4633 45.716 65.5399 45.716 65.6164 45.716C65.693 45.716 65.7696 45.716 65.8461 45.716C65.9227 45.716 65.9993 45.716 66.0758 45.716C66.1524 45.716 66.2289 45.716 66.3055 45.716C66.3821 45.716 66.4586 45.716 66.5352 45.716C66.6117 45.716 66.6883 45.716 66.7648 45.716C66.8414 45.716 66.9179 45.716 66.9945 45.716C67.071 45.716 67.1475 45.716 67.2241 45.716C67.3006 45.716 67.3771 45.716 67.4537 45.716C67.5302 45.716 67.6067 45.716 67.6832 45.716C67.7597 45.716 67.8362 45.716 67.9127 45.716C67.9892 45.716 68.0657 45.716 68.1422 45.716C68.2187 45.716 68.2952 45.716 68.3717 45.716C68.4482 45.716 68.5246 45.716 68.6011 45.716C68.6776 45.716 68.754 45.716 68.8305 45.716C68.9069 45.716 68.9834 45.716 69.0598 45.716C69.1362 45.716 69.2127 45.716 69.2891 45.716C69.3655 45.716 69.4419 45.716 69.5183 45.716C69.5947 45.716 69.6711 45.716 69.7475 45.716C69.8238 45.716 69.9002 45.716 69.9766 45.716C70.0529 45.716 70.1293 45.716 70.2056 45.716C70.2819 45.716 70.3583 45.716 70.4346 45.716C70.5109 45.716 70.5872 45.716 70.6635 45.716C70.7398 45.716 70.816 45.716 70.8923 45.716C70.9686 45.716 71.0448 45.716 71.121 45.716C71.1973 45.716 71.2735 45.716 71.3497 45.716C71.4259 45.716 71.5021 45.716 71.5783 45.716C71.6545 45.716 71.7306 45.716 71.8068 45.716C71.8829 45.716 71.9591 45.716 72.0352 45.716C72.1113 45.716 72.1874 45.716 72.2635 45.716C72.3396 45.716 72.4157 45.716 72.4917 45.716C72.5678 45.716 72.6438 45.716 72.7199 45.716C72.7959 45.716 72.8719 45.716 72.9479 45.716C73.0239 45.716 73.0999 45.716 73.1758 45.716C73.2518 45.716 73.3277 45.716 73.4036 45.716C73.4795 45.716 73.5554 45.716 73.6313 45.716C73.7072 45.716 73.783 45.716 73.8589 45.716C73.9347 45.716 74.0105 45.716 74.0863 45.716C74.1621 45.716 74.2379 45.716 74.3137 45.716C74.3894 45.716 74.4652 45.716 74.5409 45.716C74.6166 45.716 74.6923 45.716 74.768 45.716C74.8436 45.716 74.9193 45.716 74.9949 45.716C75.0706 45.716 75.1462 45.716 75.2217 45.716C75.2973 45.716 75.3729 45.716 75.4484 45.716C75.5239 45.716 75.5995 45.716 75.675 45.716C75.7504 45.716 75.8259 45.716 75.9013 45.716C75.9768 45.716 76.0522 45.716 76.1276 45.716C76.203 45.716 76.2783 45.716 76.3537 45.716C76.429 45.716 76.5043 45.716 76.5796 45.716C76.6549 45.716 76.7302 45.716 76.8054 45.716C76.8806 45.716 76.9558 45.716 77.031 45.716C77.1062 45.716 77.1814 45.716 77.2565 45.716C77.3316 45.716 77.4067 45.716 77.4818 45.716C77.5568 45.716 77.6319 45.716 77.7069 45.716C77.7819 45.716 77.8569 45.716 77.9318 45.716C78.0068 45.716 78.0817 45.716 78.1566 45.716C78.2315 45.716 78.3063 45.716 78.3812 45.716C78.456 45.716 78.5308 45.716 78.6056 45.716C78.6804 45.716 78.7551 45.716 78.8298 45.716C78.9045 45.716 78.9792 45.716 79.0538 45.716C79.1285 45.716 79.2031 45.716 79.2777 45.716C79.3522 45.716 79.4268 45.716 79.5013 45.716C79.5758 45.716 79.6503 45.716 79.7247 45.716C79.7992 45.716 79.8736 45.716 79.948 45.716C80.0223 45.716 80.0967 45.716 80.171 45.716C80.2453 45.716 80.3196 45.716 80.3938 45.716C80.4681 45.716 80.5423 45.716 80.6164 45.716C80.6906 45.716 80.7647 45.716 80.8388 45.716C80.9129 45.716 80.987 45.716 81.061 45.716C81.135 45.716 81.209 45.716 81.2829 45.716C81.3569 45.716 81.4308 45.716 81.5047 45.716C81.5785 45.716 81.6524 45.716 81.7261 45.716C81.7999 45.716 81.8737 45.716 81.9474 45.716C82.0211 45.716 82.0948 45.716 82.1684 45.716C82.2421 45.716 82.3157 45.716 82.3892 45.716C82.4628 45.716 82.5363 45.716 82.6098 45.716C82.6832 45.716 82.7567 45.716 82.8301 45.716C82.9035 45.716 82.9768 45.716 83.0501 45.716C83.1234 45.716 83.1967 45.716 83.2699 45.716C83.3432 45.716 83.4163 45.716 83.4895 45.716C83.5626 45.716 83.6357 45.716 83.7088 45.716C83.7818 45.716 83.8548 45.716 83.9278 45.716C84.0008 45.716 84.0737 45.716 84.1466 45.716C84.2194 45.716 84.2923 45.716 84.3651 45.716C84.4378 45.716 84.5106 45.716 84.5833 45.716C84.656 45.716 84.7286 45.716 84.8012 45.716C84.8738 45.716 84.9464 45.716 85.0189 45.716C85.0914 45.716 85.1639 45.716 85.2363 45.716C85.3087 45.716 85.3811 45.716 85.4534 45.716C85.5257 45.716 85.598 45.716 85.6702 45.716C85.7424 45.716 85.8146 45.716 85.8868 45.716C85.9589 45.716 86.031 45.716 86.103 45.716C86.175 45.716 86.247 45.716 86.3189 45.716C86.3909 45.716 86.4627 45.716 86.5346 45.716C86.6064 45.716 86.6782 45.716 86.7499 45.716C86.8216 45.716 86.8933 45.716 86.9649 45.716C87.0366 45.716 87.1081 45.716 87.1797 45.716C87.2512 45.716 87.3227 45.716 87.3941 45.716C87.4655 45.716 87.5368 45.716 87.6082 45.716C87.6795 45.716 87.7507 45.716 87.8219 45.716C87.8931 45.716 87.9643 45.716 88.0354 45.716C88.1065 45.716 88.1775 45.716 88.2485 45.716C88.3195 45.716 88.3904 45.716 88.4613 45.716C88.5322 45.716 88.603 45.716 88.6738 45.716C88.7445 45.716 88.8152 45.716 88.8859 45.716C88.9565 45.716 89.0271 45.716 89.0977 45.716C89.1682 45.716 89.2387 45.716 89.3091 45.716C89.3795 45.716 89.4499 45.716 89.5202 45.716C89.5905 45.716 89.6608 45.716 89.731 45.716C89.8012 45.716 89.8713 45.716 89.9414 45.716C90.0114 45.716 90.0815 45.716 90.1514 45.716C90.2214 45.716 90.2913 45.716 90.3611 45.716C90.4309 45.716 90.5007 45.716 90.5704 45.716C90.6401 45.716 90.7098 45.716 90.7794 45.716C90.849 45.716 90.9185 45.716 90.988 45.716C91.0574 45.716 91.1269 45.716 91.1962 45.716C91.2655 45.716 91.3348 45.716 91.404 45.716C91.4733 45.716 91.5424 45.716 91.6115 45.716C91.6806 45.716 91.7496 45.716 91.8186 45.716C91.8876 45.716 91.9565 45.716 92.0253 45.716C92.0941 45.716 92.1629 45.716 92.2316 45.716C92.3003 45.716 92.369 45.716 92.4375 45.716C92.5061 45.716 92.5746 45.716 92.6431 45.716C92.7115 45.716 92.7799 45.716 92.8482 45.716C92.9165 45.716 92.9848 45.716 93.0529 45.716C93.1211 45.716 93.1892 45.716 93.2573 45.716C93.3253 45.716 93.3933 45.716 93.4612 45.716C93.5291 45.716 93.5969 45.716 93.6647 45.716C93.7325 45.716 93.8002 45.716 93.8678 45.716C93.9354 45.716 94.003 45.716 94.0705 45.716C94.138 45.716 94.2054 45.716 94.2727 45.716C94.3401 45.716 94.4074 45.716 94.4746 45.716C94.5418 45.716 94.6089 45.716 94.676 45.716C94.7431 45.716 94.8101 45.716 94.877 45.716C94.9439 45.716 95.0107 45.716 95.0775 45.716C95.1443 45.716 95.211 45.716 95.2776 45.716C95.3443 45.716 95.4108 45.716 95.4773 45.716C95.5438 45.716 95.6102 45.716 95.6765 45.716C95.7429 45.716 95.8091 45.716 95.8753 45.716C95.9415 45.716 96.0076 45.716 96.0737 45.716C96.1397 45.716 96.2057 45.716 96.2716 45.716C96.3374 45.716 96.4032 45.716 96.469 45.716C96.5347 45.716 96.6004 45.716 96.666 45.716C96.7315 45.716 96.797 45.716 96.8625 45.716C96.9279 45.716 96.9932 45.716 97.0585 45.716C97.1238 45.716 97.189 45.716 97.2541 45.716C97.3192 45.716 97.3842 45.716 97.4492 45.716C97.5141 45.716 97.579 45.716 97.6438 45.716C97.7086 45.716 97.7733 45.716 97.838 45.716C97.9026 45.716 97.9672 45.716 98.0316 45.716C98.0961 45.716 98.1605 45.716 98.2248 45.716C98.2891 45.716 98.3534 45.716 98.4175 45.716C98.4817 45.716 98.5457 45.716 98.6097 45.716C98.6737 45.716 98.7376 45.716 98.8014 45.716C98.8653 45.716 98.929 45.716 98.9926 45.716C99.0563 45.716 99.1199 45.716 99.1834 45.716C99.2468 45.716 99.3103 45.716 99.3736 45.716C99.4369 45.716 99.5001 45.716 99.5633 45.716C99.6264 45.716 99.6895 45.716 99.7525 45.716C99.8154 45.716 99.8783 45.716 99.9411 45.716C100.004 45.716 100.067 45.716 100.129 45.716C100.192 45.716 100.254 45.716 100.317 45.716C100.379 45.716 100.442 45.716 100.504 45.716C100.566 45.716 100.629 45.716 100.691 45.716C100.753 45.716 100.815 45.716 100.877 45.716C100.939 45.716 101 45.716 101.062 45.716C101.124 45.716 101.186 45.716 101.247 45.716C101.309 45.716 101.37 45.716 101.432 45.716C101.493 45.716 101.554 45.716 101.616 45.716C101.677 45.716 101.738 45.716 101.799 45.716C101.86 45.716 101.921 45.716 101.982 45.716C102.043 45.716 102.103 45.716 102.164 45.716C102.225 45.716 102.285 45.716 102.346 45.716C102.406 45.716 102.467 45.716 102.527 45.716C102.587 45.716 102.647 45.716 102.707 45.716C102.768 45.716 102.828 45.716 102.887 45.716C102.947 45.716 103.007 45.716 103.067 45.716C103.127 45.716 103.186 45.716 103.246 45.716C103.305 45.716 103.365 45.716 103.424 45.716C103.483 45.716 103.543 45.716 103.602 45.716C103.661 45.716 103.72 45.716 103.779 45.716C103.838 45.716 103.897 45.716 103.956 45.716C104.014 45.716 104.073 45.716 104.131 45.716C104.19 45.716 104.248 45.716 104.307 45.716C104.365 45.716 104.423 45.716 104.482 45.716C104.54 45.716 104.598 45.716 104.656 45.716C104.714 45.716 104.772 45.716 104.829 45.716C104.887 45.716 104.945 45.716 105.002 45.716C105.06 45.716 105.117 45.716 105.175 45.716C105.232 45.716 105.289 45.716 105.347 45.716C105.404 45.716 105.461 45.716 105.518 45.716C105.575 45.716 105.631 45.716 105.688 45.716C105.745 45.716 105.802 45.716 105.858 45.716C105.915 45.716 105.971 45.716 106.027 45.716C106.084 45.716 106.14 45.716 106.196 45.716C106.252 45.716 106.308 45.716 106.364 45.716C106.42 45.716 106.476 45.716 106.531 45.716C106.587 45.716 106.643 45.716 106.698 45.716C106.754 45.716 106.809 45.716 106.864 45.716C106.92 45.716 106.975 45.716 107.03 45.716C107.085 45.716 107.14 45.716 107.195 45.716C107.249 45.716 107.304 45.716 107.359 45.716C107.413 45.716 107.468 45.716 107.522 45.716C107.577 45.716 107.631 45.716 107.685 45.716C107.739 45.716 107.793 45.716 107.847 45.716C107.901 45.716 107.955 45.716 108.009 45.716C108.063 45.716 108.116 45.716 108.17 45.716C108.223 45.716 108.277 45.716 108.33 45.716C108.383 45.716 108.436 45.716 108.49 45.716C108.543 45.716 108.596 45.716 108.648 45.716C108.701 45.716 108.754 45.716 108.807 45.716C108.859 45.716 108.912 45.716 108.964 45.716C109.016 45.716 109.069 45.716 109.121 45.716C109.173 45.716 109.225 45.716 109.277 45.716C109.329 45.716 109.381 45.716 109.432 45.716C109.484 45.716 109.536 45.716 109.587 45.716C109.639 45.716 109.69 45.716 109.741 45.716C109.792 45.716 109.844 45.716 109.895 45.716C109.946 45.716 109.996 45.716 110.047 45.716C110.098 45.716 110.149 45.716 110.199 45.716C110.25 45.716 110.3 45.716 110.35 45.716C110.401 45.716 110.451 45.716 110.501 45.716C110.551 45.716 110.601 45.716 110.651 45.716C110.7 45.716 110.75 45.716 110.8 45.716C110.849 45.716 110.899 45.716 110.948 45.716C110.997 45.716 111.047 45.716 111.096 45.716C111.145 45.716 111.194 45.716 111.243 45.716C111.291 45.716 111.34 45.716 111.389 45.716C111.437 45.716 111.486 45.716 111.534 45.716C111.582 45.716 111.631 45.716 111.679 45.716C111.727 45.716 111.775 45.716 111.823 45.716C111.871 45.716 111.918 45.716 111.966 45.716C112.013 45.716 112.061 45.716 112.108 45.716C112.156 45.716 112.203 45.716 112.25 45.716C112.297 45.716 112.344 45.716 112.391 45.716C112.438 45.716 112.484 45.716 112.531 45.716C112.578 45.716 112.624 45.716 112.67 45.716C112.717 45.716 112.763 45.716 112.809 45.716C112.855 45.716 112.901 45.716 112.947 45.716C112.993 45.716 113.038 45.716 113.084 45.716C113.13 45.716 113.175 45.716 113.22 45.716C113.266 45.716 113.311 45.716 113.356 45.716C113.401 45.716 113.446 45.716 113.491 45.716C113.535 45.716 113.58 45.716 113.625 45.716C113.669 45.716 113.713 45.716 113.758 45.716C113.802 45.716 113.846 45.716 113.89 45.716C113.934 45.716 113.978 45.716 114.022 45.716C114.065 45.716 114.109 45.716 114.152 45.716C114.196 45.716 114.239 45.716 114.282 45.716C114.326 45.716 114.369 45.716 114.412 45.716C114.455 45.716 114.497 45.716 114.54 45.716C114.583 45.716 114.625 45.716 114.668 45.716C114.71 45.716 114.752 45.716 114.794 45.716C114.836 45.716 114.878 45.716 114.92 45.716C114.962 45.716 115.004 45.716 115.045 45.716C115.087 45.716 115.128 45.716 115.17 45.716C115.211 45.716 115.252 45.716 115.293 45.716C115.334 45.716 115.375 45.716 115.416 45.716C115.456 45.716 115.497 45.716 115.538 45.716C115.578 45.716 115.618 45.716 115.658 45.716C115.699 45.716 115.739 45.716 115.779 45.716C115.818 45.716 115.858 45.716 115.898 45.716C115.937 45.716 115.977 45.716 116.016 45.716C116.056 45.716 116.095 45.716 116.134 45.716C116.173 45.716 116.212 45.716 116.251 45.716C116.289 45.716 116.328 45.716 116.366 45.716C116.405 45.716 116.443 45.716 116.481 45.716C116.52 45.716 116.558 45.716 116.596 45.716C116.633 45.716 116.671 45.716 116.709 45.716C116.746 45.716 116.784 45.716 116.821 45.716C116.859 45.716 116.896 45.716 116.933 45.716C116.97 45.716 117.007 45.716 117.043 45.716C117.08 45.716 117.117 45.716 117.153 45.716C117.19 45.716 117.226 45.716 117.262 45.716C117.298 45.716 117.334 45.716 117.37 45.716C117.406 45.716 117.442 45.716 117.477 45.716C117.513 45.716 117.548 45.716 117.583 45.716C117.619 45.716 117.654 45.716 117.689 45.716C117.724 45.716 117.758 45.716 117.793 45.716C117.828 45.716 117.862 45.716 117.897 45.716C117.931 45.716 117.965 45.716 117.999 45.716C118.033 45.716 118.067 45.716 118.101 45.716C118.135 45.716 118.168 45.716 118.202 45.716C118.235 45.716 118.268 45.716 118.302 45.716C118.335 45.716 118.368 45.716 118.401 45.716C118.433 45.716 118.466 45.716 118.499 45.716C118.531 45.716 118.563 45.716 118.596 45.716C118.628 45.716 118.66 45.716 118.692 45.716C118.724 45.716 118.756 45.716 118.787 45.716C118.819 45.716 118.85 45.716 118.881 45.716C118.913 45.716 118.944 45.716 118.975 45.716C119.006 45.716 119.037 45.716 119.067 45.716C119.098 45.716 119.128 45.716 119.159 45.716C119.189 45.716 119.219 45.716 119.249 45.716C119.279 45.716 119.309 45.716 119.339 45.716C119.369 45.716 119.398 45.716 119.428 45.716C119.457 45.716 119.486 45.716 119.515 45.716C119.544 45.716 119.573 45.716 119.602 45.716C119.631 45.716 119.659 45.716 119.688 45.716C119.716 45.716 119.744 45.716 119.773 45.716C119.801 45.716 119.829 45.716 119.856 45.716C119.884 45.716 119.912 45.716 119.939 45.716C119.967 45.716 119.994 45.716 120.021 45.716C120.048 45.716 120.075 45.716 120.102 45.716C120.129 45.716 120.155 45.716 120.182 45.716C120.208 45.716 120.235 45.716 120.261 45.716C120.287 45.716 120.313 45.716 120.339 45.716C120.365 45.716 120.39 45.716 120.416 45.716C120.441 45.716 120.466 45.716 120.492 45.716C120.517 45.716 120.542 45.716 120.567 45.716C120.591 45.716 120.616 45.716 120.641 45.716C120.665 45.716 120.689 45.716 120.713 45.716C120.738 45.716 120.762 45.716 120.785 45.716C120.809 45.716 120.833 45.716 120.856 45.716C120.88 45.716 120.903 45.716 120.926 45.716C120.949 45.716 120.972 45.716 120.995 45.716C121.018 45.716 121.041 45.716 121.063 45.716C121.085 45.716 121.108 45.716 121.13 45.716C121.152 45.716 121.174 45.716 121.196 45.716C121.217 45.716 121.239 45.716 121.26 45.716C121.282 45.716 121.303 45.716 121.324 45.716C121.345 45.716 121.366 45.716 121.387 45.716C121.408 45.716 121.428 45.716 121.448 45.716C121.469 45.716 121.489 45.716 121.509 45.716C121.529 45.716 121.549 45.716 121.569 45.716C121.588 45.716 121.608 45.716 121.627 45.716C121.646 45.716 121.666 45.716 121.685 45.716C121.704 45.716 121.722 45.716 121.741 45.716C121.76 45.716 121.778 45.716 121.796 45.716C121.815 45.716 121.833 45.716 121.851 45.716C121.869 45.716 121.886 45.716 121.904 45.716C121.921 45.716 121.939 45.716 121.956 45.716C121.973 45.716 121.99 45.716 122.007 45.716C122.024 45.716 122.041 45.716 122.057 45.716C122.074 45.716 122.09 45.716 122.106 45.716C122.122 45.716 122.138 45.716 122.154 45.716C122.17 45.716 122.185 45.716 122.201 45.716C122.216 45.716 122.231 45.716 122.246 45.716C122.261 45.716 122.276 45.716 122.291 45.716C122.305 45.716 122.32 45.716 122.334 45.716C122.348 45.716 122.363 45.716 122.377 45.716C122.39 45.716 122.404 45.716 122.418 45.716C122.431 45.716 122.445 45.716 122.458 45.716C122.471 45.716 122.484 45.716 122.497 45.716C122.51 45.716 122.522 45.716 122.535 45.716C122.547 45.716 122.56 45.716 122.572 45.716C122.584 45.716 122.596 45.716 122.607 45.716C122.619 45.716 122.631 45.716 122.642 45.716C122.653 45.716 122.664 45.716 122.675 45.716C122.686 45.716 122.697 45.716 122.708 45.716C122.718 45.716 122.729 45.716 122.739 45.716C122.749 45.716 122.759 45.716 122.769 45.716C122.779 45.716 122.788 45.716 122.798 45.716C122.807 45.716 122.817 45.716 122.826 45.716C122.835 45.716 122.844 45.716 122.852 45.716C122.861 45.716 122.869 45.716 122.878 45.716C122.886 45.716 122.894 45.716 122.902 45.716C122.91 45.716 122.918 45.716 122.925 45.716C122.933 45.716 122.94 45.716 122.947 45.716C122.954 45.716 122.961 45.716 122.968 45.716C122.975 45.716 122.981 45.716 122.988 45.716C122.994 45.716 123 45.716 123.006 45.716C123.012 45.716 123.018 45.716 123.024 45.716C123.029 45.716 123.035 45.716 123.04 45.716C123.045 45.716 123.05 45.716 123.055 45.716C123.06 45.716 123.064 45.716 123.069 45.716C123.073 45.716 123.077 45.716 123.081 45.716C123.085 45.716 123.089 45.716 123.093 45.716C123.096 45.716 123.1 45.716 123.103 45.716C123.106 45.716 123.109 45.716 123.112 45.716C123.115 45.716 123.117 45.716 123.12 45.716C123.122 45.716 123.124 45.716 123.126 45.716C123.128 45.716 123.13 45.716 123.132 45.716C123.134 45.716 123.135 45.716 123.136 45.716C123.137 45.716 123.138 45.716 123.139 45.716C123.14 45.716 123.141 45.716 123.141 45.716C123.141 45.716 123.142 45.716 123.142 35.7149Z" fill="#C7C7C7" mask="url(#path-3-outside-1_411_5)"/>
</svg>
