<svg width="134" height="121" viewBox="0 0 134 121" fill="none" xmlns="http://www.w3.org/2000/svg">
<path d="M66.8663 113.969C70.568 113.969 73.5688 110.968 73.5688 107.267C73.5688 103.565 70.568 100.564 66.8663 100.564C63.1647 100.564 60.1639 103.565 60.1639 107.267C60.1639 110.968 63.1647 113.969 66.8663 113.969Z" fill="#C7C7C7"/>
<path d="M69.8155 53.6469L57.0809 40.9793L40.593 24.6253L30.2042 14.2366L18.0058 1.97113C17.3809 1.3462 16.639 0.850487 15.8225 0.51228C15.006 0.174073 14.1308 0 13.2471 0C12.3633 0 11.4882 0.174073 10.6717 0.51228C9.85515 0.850487 9.11325 1.3462 8.48833 1.97113C7.22624 3.23322 6.5172 4.94499 6.5172 6.72985C6.5172 8.51472 7.22624 10.2265 8.48833 11.4886L17.7377 20.6709L27.5232 30.4565L42.4696 45.4699L52.8584 55.7916L71.223 74.1563L89.9228 92.9231L115.727 118.727C116.35 119.356 117.092 119.854 117.908 120.195C118.725 120.535 119.601 120.71 120.486 120.71C121.371 120.71 122.247 120.535 123.063 120.195C123.88 119.854 124.622 119.356 125.245 118.727C125.873 118.104 126.371 117.363 126.712 116.546C127.052 115.73 127.227 114.854 127.227 113.969C127.227 113.084 127.052 112.208 126.712 111.391C126.371 110.574 125.873 109.833 125.245 109.21L69.8155 53.6469ZM132.014 33.0704C114.557 16.1412 91.184 6.69091 66.8665 6.72985C56.7489 6.75728 46.7014 8.40924 37.1077 11.6226L47.9656 22.4806C61.1144 19.1951 74.8839 19.3173 87.9723 22.8357C101.061 26.3541 113.036 33.1524 122.765 42.5878C124.007 43.7854 125.664 44.4577 127.389 44.4645C128.292 44.4611 129.185 44.2753 130.014 43.9182C130.844 43.5612 131.592 43.0403 132.215 42.3868C133.397 41.1111 134.036 39.4262 133.999 37.6879C133.961 35.9496 133.249 34.2939 132.014 33.0704ZM12.0406 24.4913C8.40406 27.1066 4.95505 29.9733 1.71888 33.0704C0.587762 34.3281 -0.025954 35.9671 0.000841886 37.6584C0.0276378 39.3497 0.692963 40.9684 1.86336 42.1897C3.03375 43.411 4.62264 44.1445 6.31131 44.2432C7.99997 44.3419 9.66352 43.7985 10.9682 42.7219C14.3107 39.5632 17.8964 36.6723 21.6921 34.0758L12.0406 24.4913ZM100.379 67.9901C100.999 68.6234 101.74 69.1272 102.556 69.4723C103.373 69.8175 104.251 69.9971 105.137 70.0008C106.447 69.9958 107.727 69.6072 108.818 68.8829C109.909 68.1586 110.765 67.1304 111.278 65.9254C111.791 64.7204 111.94 63.3914 111.707 62.1026C111.473 60.8138 110.867 59.6217 109.963 58.6737C104.373 52.8812 97.6798 48.2662 90.2783 45.1007C82.8767 41.9352 74.9164 40.2832 66.8665 40.242H65.7941L81.5448 55.9927C88.6968 58.4177 95.1577 62.5334 100.379 67.9901ZM36.2364 48.6871C31.5528 51.415 27.2676 54.7755 23.5018 58.6737C22.2663 59.9802 21.6005 61.724 21.6508 63.5214C21.7011 65.3189 22.4633 67.0227 23.7699 68.2581C25.0764 69.4936 26.8202 70.1594 28.6176 70.1091C30.4151 70.0588 32.1189 69.2966 33.3543 67.9901C37.259 64.1081 41.791 60.9131 46.7592 58.5396L36.2364 48.6871ZM43.6091 83.1375C42.3292 84.373 41.5925 86.0662 41.5611 87.8448C41.5455 88.7255 41.7036 89.6006 42.0262 90.4202C42.3489 91.2397 42.8298 91.9878 43.4415 92.6215C44.0532 93.2552 44.7838 93.7622 45.5914 94.1136C46.3991 94.465 47.2681 94.6539 48.1488 94.6694C49.9273 94.7009 51.6456 94.0245 52.9254 92.789C56.3759 89.6067 60.8137 87.7042 65.4977 87.3992C70.1818 87.0943 74.8287 88.4053 78.6627 91.1134L61.7726 74.2233C54.9443 75.2524 48.6005 78.3657 43.6091 83.1375Z" fill="#C7C7C7"/>
</svg>
